<svg viewBox="0 0 101 100" fill="none" xmlns="http://www.w3.org/2000/svg">
<path d="M34.4181 40.0415L51.0156 30.083L67.6131 40.0415M34.4181 40.0415V59.9585L51.0156 69.917M34.4181 40.0415L51.0156 50M67.6131 40.0415V59.9585L51.0156 69.917M67.6131 40.0415L51.0156 50M51.0156 69.917V50M72.0188 21.9746C67.4191 18.522 61.9414 16.1774 55.9811 15.3313M85.6843 45.0345C84.8382 39.0742 82.4936 33.5965 79.041 28.9968M79.041 71.0032C82.4936 66.4035 84.8382 60.9258 85.6843 54.9655M55.9811 84.6687C61.9414 83.8226 67.4191 81.478 72.0188 78.0254M30.0125 78.0254C34.6121 81.478 40.0898 83.8226 46.0501 84.6687M16.3469 54.9655C17.1931 60.9258 19.5376 66.4035 22.9902 71.0032M22.9902 28.9968C19.5376 33.5965 17.1931 39.0742 16.3469 45.0345M46.0501 15.3313C40.0898 16.1774 34.6121 18.522 30.0125 21.9746M55.9949 85.0207C55.9949 82.2707 53.7657 80.0415 51.0156 80.0415C48.2656 80.0415 46.0364 82.2707 46.0364 85.0207C46.0364 87.7708 48.2656 90 51.0156 90C53.7657 90 55.9949 87.7708 55.9949 85.0207ZM55.9949 14.9793C55.9949 12.2292 53.7657 10 51.0156 10C48.2656 10 46.0364 12.2292 46.0364 14.9793C46.0364 17.7293 48.2656 19.9585 51.0156 19.9585C53.7657 19.9585 55.9949 17.7293 55.9949 14.9793ZM86.0364 45.0207C83.2863 45.0207 81.0571 47.25 81.0571 50C81.0571 52.75 83.2863 54.9793 86.0364 54.9793C88.7864 54.9793 91.0156 52.75 91.0156 50C91.0156 47.25 88.7864 45.0207 86.0364 45.0207ZM15.9949 45.0207C13.2448 45.0207 11.0156 47.25 11.0156 50C11.0156 52.75 13.2448 54.9793 15.9949 54.9793C18.7449 54.9793 20.9741 52.75 20.9741 50C20.9741 47.25 18.7449 45.0207 15.9949 45.0207ZM79.2999 71.2425C77.3554 69.2979 74.2027 69.2979 72.2583 71.2425C70.3139 73.1871 70.3137 76.3398 72.2583 78.2841C74.2028 80.2285 77.3555 80.2287 79.2999 78.2841C81.2443 76.3396 81.2443 73.1871 79.2999 71.2425ZM29.7731 21.7157C27.8286 19.7711 24.6759 19.7711 22.7315 21.7157C20.7871 23.6602 20.7869 26.8129 22.7315 28.7573C24.676 30.7017 27.8287 30.7019 29.7731 28.7573C31.7175 26.8128 31.7175 23.6602 29.7731 21.7157ZM72.2581 21.7157C70.3136 23.6602 70.3136 26.8129 72.2581 28.7573C74.2027 30.7017 77.3554 30.7019 79.2998 28.7573C81.2442 26.8128 81.2443 23.6601 79.2998 21.7157C77.3552 19.7713 74.2027 19.7713 72.2581 21.7157ZM22.7313 71.2425C20.7867 73.1871 20.7867 76.3398 22.7313 78.2841C24.6759 80.2285 27.8286 80.2287 29.773 78.2841C31.7174 76.3396 31.7175 73.1869 29.773 71.2425C27.8284 69.2981 24.6759 69.2981 22.7313 71.2425Z" stroke="#AE8EF8" stroke-width="4.5" stroke-miterlimit="10" stroke-linecap="round" stroke-linejoin="round"/>
</svg>
