<svg viewBox="0 0 42 42" fill="none" xmlns="http://www.w3.org/2000/svg">
<g clip-path="url(#clip0_6282_5825)">
    <path d="M35.4375 5.25H19.6875C18.963 5.25 18.375 5.838 18.375 6.5625V10.7363C17.5193 10.5919 16.6451 10.5 15.75 10.5C7.06388 10.5 0 17.5639 0 26.25C0 34.9361 7.06388 42 15.75 42C24.4361 42 31.5 34.9361 31.5 26.25C31.5 20.7743 28.6886 15.9495 24.4388 13.125H35.4375C36.162 13.125 36.75 12.537 36.75 11.8125V6.5625C36.75 5.838 36.162 5.25 35.4375 5.25ZM28.875 26.25C28.875 33.4871 22.9871 39.375 15.75 39.375C8.51287 39.375 2.625 33.4871 2.625 26.25C2.625 19.0129 8.51287 13.125 15.75 13.125C22.9871 13.125 28.875 19.0129 28.875 26.25ZM34.125 10.5H21V7.875H34.125V10.5Z" fill="black"/>
    <path d="M39.375 0H15.75C14.3036 0 13.125 1.17862 13.125 2.625V6.5625C13.125 7.287 13.713 7.875 14.4375 7.875C15.162 7.875 15.75 7.287 15.75 6.5625V2.625H39.375V34.125H32.8125C32.088 34.125 31.5 34.713 31.5 35.4375C31.5 36.162 32.088 36.75 32.8125 36.75H39.375C40.8214 36.75 42 35.5714 42 34.125V2.625C42 1.17862 40.8214 0 39.375 0Z" fill="black"/>
    <path d="M36.75 18.375H34.125V21H36.75V18.375Z" fill="black"/>
    <path d="M36.75 26.25H34.125V28.875H36.75V26.25Z" fill="black"/>
    <path d="M13.125 15.75C10.9541 15.75 9.1875 17.5166 9.1875 19.6875C9.1875 21.8584 10.9541 23.625 13.125 23.625C15.2959 23.625 17.0625 21.8584 17.0625 19.6875C17.0625 17.5166 15.2959 15.75 13.125 15.75ZM13.125 21C12.4005 21 11.8125 20.412 11.8125 19.6875C11.8125 18.963 12.4005 18.375 13.125 18.375C13.8495 18.375 14.4375 18.963 14.4375 19.6875C14.4375 20.412 13.8495 21 13.125 21Z" fill="black"/>
    <path d="M18.375 28.875C16.2041 28.875 14.4375 30.6416 14.4375 32.8125C14.4375 34.9834 16.2041 36.75 18.375 36.75C20.5459 36.75 22.3125 34.9834 22.3125 32.8125C22.3125 30.6416 20.5459 28.875 18.375 28.875ZM18.375 34.125C17.6505 34.125 17.0625 33.537 17.0625 32.8125C17.0625 32.088 17.6505 31.5 18.375 31.5C19.0995 31.5 19.6875 32.088 19.6875 32.8125C19.6875 33.537 19.0995 34.125 18.375 34.125Z" fill="black"/>
    <path d="M21.8215 18.6611C21.2571 18.2096 20.4302 18.3041 19.9761 18.8658L9.4761 31.9908C9.02197 32.5578 9.11385 33.3847 9.68085 33.8388C9.92235 34.0305 10.2111 34.125 10.4998 34.125C10.8857 34.125 11.2663 33.957 11.5262 33.6315L22.0262 20.5065C22.4777 19.9395 22.3858 19.1152 21.8215 18.6611Z" fill="black"/>
</g>
<defs>
</defs>
</svg>
