<svg width="44" height="44" viewBox="0 0 44 44" fill="none" xmlns="http://www.w3.org/2000/svg">
<path d="M22.5452 29.9856L22.5447 29.9827C22.3663 29.0196 22.0453 28.5752 21.8469 28.3781C21.817 28.3484 21.7881 28.3225 21.7605 28.2999C21.7334 28.3223 21.7049 28.3479 21.6755 28.3771C21.4768 28.575 21.1553 29.0208 20.9736 29.9856C20.8161 30.8282 20.8642 31.5106 20.9444 31.9675C20.9846 32.1964 21.0328 32.3683 21.067 32.4742C21.0841 32.5271 21.0976 32.5632 21.1046 32.5814C21.1069 32.5872 21.1085 32.5912 21.1094 32.5932C21.2652 32.9478 21.248 33.355 21.0621 33.6954C20.8739 34.0399 20.5348 34.2761 20.1463 34.333L19.965 33.0962C20.1463 34.333 20.1456 34.3331 20.1448 34.3332L20.1433 34.3335L20.1399 34.3339L20.1325 34.335L20.1144 34.3374C20.101 34.339 20.0849 34.3409 20.0662 34.3429C20.0289 34.3468 19.9811 34.351 19.9242 34.3543C19.8109 34.3609 19.6584 34.364 19.4786 34.3532C19.1252 34.3321 18.6293 34.2551 18.1129 34.0145C17.5832 33.7677 17.0473 33.3548 16.6457 32.6996C16.2486 32.0518 16.0269 31.2397 15.9999 30.2573C15.9577 28.7673 15.7904 27.9535 15.5144 27.2387C15.2899 26.6572 14.9963 26.1327 14.5586 25.3509C14.4034 25.0736 14.2301 24.7641 14.0353 24.4081L14.0347 24.4069C13.1493 22.7844 12.8077 20.5041 13.4173 18.5393C13.7291 17.5341 14.3026 16.5762 15.2176 15.8593C16.1378 15.1384 17.3222 14.725 18.743 14.68C19.6859 14.6491 20.4652 14.9782 21.0504 15.3416C21.482 15.6089 22.0552 15.6106 22.4849 15.3442C23.0731 14.9739 23.8412 14.6588 24.7578 14.6797L24.769 14.6799L24.769 14.68C26.1897 14.725 27.3744 15.1384 28.295 15.859C29.2104 16.5757 29.7847 17.5334 30.0971 18.5387C30.7078 20.5037 30.3664 22.7849 29.4764 24.4086L22.5452 29.9856ZM22.5452 29.9856C22.7027 30.8243 22.6547 31.5067 22.5744 31.9652C22.5341 32.1948 22.4858 32.3677 22.4514 32.4745C22.4343 32.5278 22.4207 32.5643 22.4135 32.5828L22.4083 32.5958L22.5452 29.9856ZM23.5538 33.0962C23.7387 31.86 23.738 31.8599 23.7373 31.8598L23.7359 31.8596L23.7332 31.8592L23.7286 31.8585L23.7217 31.8576C23.7187 31.8572 23.7173 31.857 23.7173 31.857L23.7174 31.8571C23.7184 31.8572 23.727 31.8581 23.7419 31.859C23.766 31.8604 23.8044 31.8617 23.8529 31.8603C23.7588 32.6415 23.5538 33.0962 23.5538 33.0962ZM23.5538 33.0962L22.4142 32.5825C22.4141 32.5828 22.414 32.5831 22.4138 32.5834C22.414 32.583 22.4142 32.5825 23.5538 33.0962ZM23.5538 33.0962C24.6934 33.6099 24.6936 33.6095 24.6938 33.609L24.6942 33.6081L24.6951 33.6061L24.697 33.6017L24.7015 33.5915L24.7129 33.5649C24.7214 33.5445 24.732 33.5187 24.744 33.4878C24.768 33.4258 24.7982 33.343 24.8312 33.2404C24.866 33.1324 24.904 33.0023 24.9412 32.8516C24.253 33.2008 23.5538 33.0962 23.5538 33.0962ZM22.4131 32.5851C22.4129 32.5855 22.4128 32.5858 22.4126 32.5861L22.4127 32.5859L22.4131 32.5851Z" stroke="#231F20" stroke-width="2.5" stroke-miterlimit="10" stroke-linecap="round" stroke-linejoin="round"/>
<path d="M5.65812 38.3063H38.3419C40.0704 38.3063 41.4688 36.9079 41.4688 35.1794V11.7563C41.4688 10.0278 40.0704 8.62939 38.3419 8.62939H5.65812C3.92964 8.62939 2.53125 10.0278 2.53125 11.7563V35.1794C2.53125 36.9079 3.92964 38.3063 5.65812 38.3063Z" stroke="#231F20" stroke-width="2.5" stroke-miterlimit="10" stroke-linecap="round" stroke-linejoin="round"/>
<mask id="path-3-outside-1_6282_5849" maskUnits="userSpaceOnUse" x="5.33594" y="3.95068" width="10" height="12" fill="black">
<rect fill="white" x="5.33594" y="3.95068" width="10" height="12"/>
<path d="M10.3503 12.8219C9.23656 12.8219 8.33594 11.5088 8.33594 9.88631C8.33594 8.26381 9.23656 6.95068 10.3503 6.95068C11.4641 6.95068 12.3647 8.26381 12.3647 9.88631"/>
</mask>
<path d="M10.3503 15.3219C11.731 15.3219 12.8503 14.2026 12.8503 12.8219C12.8503 11.4412 11.731 10.3219 10.3503 10.3219V15.3219ZM9.86469 9.88631C9.86469 11.267 10.984 12.3863 12.3647 12.3863C13.7454 12.3863 14.8647 11.267 14.8647 9.88631H9.86469ZM10.3503 10.3219C10.5802 10.3219 10.7641 10.3934 10.8767 10.4627C10.9795 10.526 11.0051 10.5746 10.9869 10.5482C10.9436 10.4851 10.8359 10.2591 10.8359 9.88631H5.83594C5.83594 11.136 6.17856 12.3778 6.864 13.3769C7.54218 14.3654 8.7323 15.3219 10.3503 15.3219V10.3219ZM10.8359 9.88631C10.8359 9.51353 10.9436 9.28753 10.9869 9.2244C11.0051 9.19798 10.9795 9.24659 10.8767 9.3099C10.7641 9.37924 10.5802 9.45068 10.3503 9.45068V4.45068C8.7323 4.45068 7.54218 5.40724 6.864 6.39572C6.17856 7.39478 5.83594 8.63659 5.83594 9.88631H10.8359ZM10.3503 9.45068C10.1204 9.45068 9.93653 9.37924 9.82394 9.3099C9.72114 9.24659 9.69557 9.19798 9.71369 9.2244C9.757 9.28753 9.86469 9.51352 9.86469 9.88631H14.8647C14.8647 8.63659 14.5221 7.39478 13.8366 6.39572C13.1584 5.40724 11.9683 4.45068 10.3503 4.45068V9.45068Z" fill="#231F20" mask="url(#path-3-outside-1_6282_5849)"/>
<mask id="path-5-outside-2_6282_5849" maskUnits="userSpaceOnUse" x="12.8906" y="3.95068" width="10" height="12" fill="black">
<rect fill="white" x="12.8906" y="3.95068" width="10" height="12"/>
<path d="M17.905 12.8219C16.7913 12.8219 15.8906 11.5088 15.8906 9.88631C15.8906 8.26381 16.7913 6.95068 17.905 6.95068C19.0188 6.95068 19.9194 8.26381 19.9194 9.88631"/>
</mask>
<path d="M17.905 15.3219C19.2857 15.3219 20.405 14.2026 20.405 12.8219C20.405 11.4412 19.2857 10.3219 17.905 10.3219V15.3219ZM17.4194 9.88631C17.4194 11.267 18.5387 12.3863 19.9194 12.3863C21.3001 12.3863 22.4194 11.267 22.4194 9.88631H17.4194ZM17.905 10.3219C18.1349 10.3219 18.3188 10.3934 18.4314 10.4627C18.5342 10.526 18.5597 10.5746 18.5416 10.5482C18.4983 10.4851 18.3906 10.2591 18.3906 9.88631H13.3906C13.3906 11.136 13.7333 12.3778 14.4187 13.3769C15.0969 14.3654 16.287 15.3219 17.905 15.3219V10.3219ZM18.3906 9.88631C18.3906 9.51353 18.4983 9.28753 18.5416 9.2244C18.5597 9.19798 18.5342 9.24659 18.4314 9.3099C18.3188 9.37924 18.1349 9.45068 17.905 9.45068V4.45068C16.287 4.45068 15.0969 5.40724 14.4187 6.39572C13.7333 7.39478 13.3906 8.63659 13.3906 9.88631H18.3906ZM17.905 9.45068C17.6751 9.45068 17.4912 9.37924 17.3786 9.3099C17.2758 9.24659 17.2503 9.19798 17.2684 9.2244C17.3117 9.28753 17.4194 9.51352 17.4194 9.88631H22.4194C22.4194 8.63659 22.0767 7.39478 21.3913 6.39572C20.7131 5.40724 19.523 4.45068 17.905 4.45068V9.45068Z" fill="#231F20" mask="url(#path-5-outside-2_6282_5849)"/>
<mask id="path-7-outside-3_6282_5849" maskUnits="userSpaceOnUse" x="20.6484" y="3.95068" width="10" height="12" fill="black">
<rect fill="white" x="20.6484" y="3.95068" width="10" height="12"/>
<path d="M25.6628 12.8219C24.5491 12.8219 23.6484 11.5088 23.6484 9.88631C23.6484 8.26381 24.5491 6.95068 25.6628 6.95068C26.7766 6.95068 27.6772 8.26381 27.6772 9.88631"/>
</mask>
<path d="M25.6628 15.3219C27.0435 15.3219 28.1628 14.2026 28.1628 12.8219C28.1628 11.4412 27.0435 10.3219 25.6628 10.3219V15.3219ZM25.1772 9.88631C25.1772 11.267 26.2965 12.3863 27.6772 12.3863C29.0579 12.3863 30.1772 11.267 30.1772 9.88631H25.1772ZM25.6628 10.3219C25.8927 10.3219 26.0766 10.3934 26.1892 10.4627C26.292 10.526 26.3176 10.5746 26.2994 10.5482C26.2561 10.4851 26.1484 10.2591 26.1484 9.88631H21.1484C21.1484 11.136 21.4911 12.3778 22.1765 13.3769C22.8547 14.3654 24.0448 15.3219 25.6628 15.3219V10.3219ZM26.1484 9.88631C26.1484 9.51353 26.2561 9.28753 26.2994 9.2244C26.3176 9.19798 26.292 9.24659 26.1892 9.3099C26.0766 9.37924 25.8927 9.45068 25.6628 9.45068V4.45068C24.0448 4.45068 22.8547 5.40724 22.1765 6.39572C21.4911 7.39478 21.1484 8.63659 21.1484 9.88631H26.1484ZM25.6628 9.45068C25.4329 9.45068 25.249 9.37924 25.1364 9.3099C25.0336 9.24659 25.0081 9.19798 25.0262 9.2244C25.0695 9.28753 25.1772 9.51352 25.1772 9.88631H30.1772C30.1772 8.63659 29.8346 7.39478 29.1491 6.39572C28.4709 5.40724 27.2808 4.45068 25.6628 4.45068V9.45068Z" fill="#231F20" mask="url(#path-7-outside-3_6282_5849)"/>
<mask id="path-9-outside-4_6282_5849" maskUnits="userSpaceOnUse" x="28.2031" y="3.95068" width="10" height="12" fill="black">
<rect fill="white" x="28.2031" y="3.95068" width="10" height="12"/>
<path d="M33.2175 12.8219C32.1038 12.8219 31.2031 11.5088 31.2031 9.88631C31.2031 8.26381 32.1038 6.95068 33.2175 6.95068C34.3313 6.95068 35.2319 8.26381 35.2319 9.88631"/>
</mask>
<path d="M33.2175 15.3219C34.5982 15.3219 35.7175 14.2026 35.7175 12.8219C35.7175 11.4412 34.5982 10.3219 33.2175 10.3219V15.3219ZM32.7319 9.88631C32.7319 11.267 33.8512 12.3863 35.2319 12.3863C36.6126 12.3863 37.7319 11.267 37.7319 9.88631H32.7319ZM33.2175 10.3219C33.4474 10.3219 33.6313 10.3934 33.7439 10.4627C33.8467 10.526 33.8722 10.5746 33.8541 10.5482C33.8108 10.4851 33.7031 10.2591 33.7031 9.88631H28.7031C28.7031 11.136 29.0458 12.3778 29.7312 13.3769C30.4094 14.3654 31.5995 15.3219 33.2175 15.3219V10.3219ZM33.7031 9.88631C33.7031 9.51353 33.8108 9.28753 33.8541 9.2244C33.8722 9.19798 33.8467 9.24659 33.7439 9.3099C33.6313 9.37924 33.4474 9.45068 33.2175 9.45068V4.45068C31.5995 4.45068 30.4094 5.40724 29.7312 6.39572C29.0458 7.39478 28.7031 8.63659 28.7031 9.88631H33.7031ZM33.2175 9.45068C32.9876 9.45068 32.8037 9.37924 32.6911 9.3099C32.5883 9.24659 32.5628 9.19798 32.5809 9.2244C32.6242 9.28753 32.7319 9.51353 32.7319 9.88631H37.7319C37.7319 8.63659 37.3892 7.39478 36.7038 6.39572C36.0256 5.40724 34.8355 4.45068 33.2175 4.45068V9.45068Z" fill="#231F20" mask="url(#path-9-outside-4_6282_5849)"/>
</svg>
