<svg width="28" height="28" viewBox="0 0 28 28" fill="none" xmlns="http://www.w3.org/2000/svg">
<rect width="28" height="28" rx="14" fill="#AE8EF8"/>
<g clip-path="url(#clip0_4278_3382)">
<mask id="mask0_4278_3382" style="mask-type:luminance" maskUnits="userSpaceOnUse" x="5" y="7" width="18" height="18">
<path d="M5 7H23V25H5V7Z" fill="white"/>
</mask>
<g mask="url(#mask0_4278_3382)">
<path d="M7.8125 17.2644H7.10937C6.33274 17.2644 5.70312 16.6348 5.70312 15.8582V9.10816C5.70312 8.33152 6.33274 7.70191 7.10937 7.70191H20.8906C21.6673 7.70191 22.2969 8.33152 22.2969 9.10816V15.8582C22.2969 16.6348 21.6673 17.2644 20.8906 17.2644H20.1875" stroke="white" stroke-width="1.3" stroke-miterlimit="10"/>
<path d="M6.20312 8.03411L12.4415 12.2868C13.3862 12.9166 14.617 12.9166 15.5617 12.2868L21.8001 8.03411" stroke="white" stroke-width="1.3" stroke-miterlimit="10"/>
<path d="M14 21.4832C13.2248 21.4832 12.5938 20.8521 12.5938 20.0769C12.5938 19.3017 13.2248 18.6707 14 18.6707C14.7752 18.6707 15.4062 19.3017 15.4062 20.0769C15.4062 20.8521 14.7752 21.4832 14 21.4832Z" stroke="white" stroke-width="1.3" stroke-miterlimit="10"/>
<path d="M15.4062 20.0769C15.4062 20.8536 16.0359 21.4832 16.8125 21.4832C17.5891 21.4832 18.2188 20.8536 18.2188 20.0769C18.2188 17.747 16.3299 15.8582 14 15.8582C11.6701 15.8582 9.78125 17.747 9.78125 20.0769C9.78125 22.4068 11.6701 24.2957 14 24.2957C14.4936 24.2957 14.9673 24.2109 15.4075 24.0552" stroke="white" stroke-width="1.3" stroke-miterlimit="10"/>
</g>
</g>
<defs>
<clipPath id="clip0_4278_3382">
<rect width="18" height="18" fill="white" transform="translate(5 7)"/>
</clipPath>
</defs>
</svg>
