<svg width="44" height="44" viewBox="0 0 44 44" fill="none" xmlns="http://www.w3.org/2000/svg">
<path d="M17.9438 21.1751C18.1115 21.1046 18.2635 21.0016 18.3911 20.8719C18.5187 20.7423 18.6193 20.5886 18.6871 20.4198C18.7549 20.251 18.7885 20.0704 18.786 19.8885C18.7835 19.7066 18.7449 19.527 18.6725 19.3601C18.139 18.1326 17.8674 16.8073 17.875 15.4688C17.8765 13.6848 18.3568 11.9338 19.2657 10.3986C20.1747 8.86339 21.479 7.60027 23.0425 6.74099C24.606 5.88172 26.3715 5.4578 28.1547 5.51345C29.9379 5.56911 31.6736 6.1023 33.1805 7.0574C34.6874 8.0125 35.9103 9.3545 36.7218 10.9434C37.5332 12.5323 37.9034 14.3098 37.7936 16.0905C37.6839 17.8712 37.0983 19.5898 36.0979 21.0671C35.0975 22.5443 33.719 23.726 32.1063 24.4888C31.8277 24.6236 31.6028 24.8484 31.4679 25.1269C31.333 25.4053 31.2959 25.7212 31.3627 26.0233C31.4295 26.3254 31.5962 26.5962 31.8359 26.7918C32.0757 26.9875 32.3744 27.0965 32.6838 27.1013C32.8873 27.1014 33.0886 27.0593 33.275 26.9776C35.3337 26.0054 37.0937 24.4984 38.3712 22.6139C39.6488 20.7295 40.3971 18.5366 40.5381 16.2643C40.6791 13.9919 40.2075 11.7234 39.1726 9.69551C38.1377 7.66759 36.5775 5.95464 34.6548 4.73545C32.732 3.51625 30.5172 2.83551 28.2417 2.76428C25.9661 2.69306 23.7131 3.23396 21.7178 4.33052C19.7226 5.42708 18.0583 7.03911 16.8986 8.99833C15.7389 10.9576 15.1264 13.1921 15.125 15.4688C15.1237 17.1798 15.4699 18.8732 16.1425 20.4463C16.2849 20.7817 16.5546 21.0467 16.8924 21.1834C17.2301 21.32 17.6082 21.317 17.9438 21.1751Z" fill="black"/>
<path d="M42.625 35.31L41.9375 33.275C41.6327 32.3974 41.0405 31.6484 40.2569 31.1493C39.4733 30.6502 38.5442 30.4302 37.62 30.525L26.345 31.6525L24.6263 31.0888L27.8988 30.2638C28.1934 30.175 28.4498 29.9898 28.6268 29.738C28.8038 29.4863 28.8912 29.1824 28.875 28.875V27.6925C28.8763 27.1269 28.7612 26.567 28.5369 26.0478C28.3126 25.5285 27.9839 25.0609 27.5713 24.674C27.1586 24.2871 26.6708 23.9893 26.1381 23.7989C25.6055 23.6086 25.0394 23.5298 24.475 23.5675L16.6925 24.09C15.4147 24.1704 14.1662 24.5071 13.0213 25.08L10.6838 26.2488C10.4544 25.7999 10.1061 25.4227 9.67688 25.1584C9.24767 24.8941 8.75406 24.7528 8.25 24.75H5.5C4.77065 24.75 4.07118 25.0398 3.55546 25.5555C3.03973 26.0712 2.75 26.7707 2.75 27.5V38.5C2.75 39.2294 3.03973 39.9288 3.55546 40.4446C4.07118 40.9603 4.77065 41.25 5.5 41.25H8.25C8.72991 41.2471 9.20071 41.1187 9.61561 40.8775C10.0305 40.6363 10.375 40.2907 10.615 39.875H13.6675L24.585 41.25H24.75C24.8596 41.2633 24.9704 41.2633 25.08 41.25L41.58 37.125C41.7759 37.0889 41.9615 37.0106 42.1242 36.8956C42.2868 36.7805 42.4225 36.6316 42.5219 36.459C42.6212 36.2864 42.6819 36.0942 42.6997 35.8958C42.7176 35.6975 42.6921 35.4976 42.625 35.31ZM5.5 38.5V27.5H8.25V38.5H5.5ZM24.6675 38.5L13.915 37.125H11V29.1638L14.2588 27.5C15.0736 27.0908 15.9616 26.8478 16.8713 26.785L24.6538 26.2763C24.8423 26.2588 25.0325 26.283 25.2107 26.3472C25.3889 26.4113 25.5508 26.5139 25.685 26.6475C25.8232 26.7757 25.9336 26.931 26.0093 27.1037C26.085 27.2763 26.1244 27.4627 26.125 27.6513V27.7613L18.2463 29.7275C17.3476 29.9529 16.551 30.4743 15.9848 31.2076C15.4185 31.941 15.1157 32.8436 15.125 33.77C15.125 34.1347 15.2699 34.4844 15.5277 34.7423C15.7856 35.0002 16.1353 35.145 16.5 35.145C16.8647 35.145 17.2144 35.0002 17.4723 34.7423C17.7301 34.4844 17.875 34.1347 17.875 33.77C17.8659 33.4559 17.9646 33.1482 18.1547 32.898C18.3448 32.6478 18.6149 32.4703 18.92 32.395L19.5938 32.23L25.685 34.375C25.872 34.4317 26.0675 34.4549 26.2625 34.4438L37.8263 33.275C38.1261 33.2594 38.4228 33.3423 38.6711 33.5111C38.9194 33.68 39.1056 33.9254 39.2013 34.21L39.4075 34.8425L24.6675 38.5Z" fill="black"/>
<path d="M24.4062 14.0938C25.5453 14.0938 26.4688 13.1703 26.4688 12.0312C26.4688 10.8922 25.5453 9.96875 24.4062 9.96875C23.2672 9.96875 22.3438 10.8922 22.3438 12.0312C22.3438 13.1703 23.2672 14.0938 24.4062 14.0938Z" fill="black"/>
<path d="M24.4779 21.0101C24.681 21.0087 24.8813 20.9624 25.0644 20.8745C25.2474 20.7865 25.4087 20.6591 25.5367 20.5013L32.2879 12.1688C32.4125 12.0303 32.5076 11.8679 32.5675 11.6914C32.6274 11.515 32.6508 11.3282 32.6363 11.1424C32.6218 10.9567 32.5697 10.7758 32.4831 10.6108C32.3966 10.4458 32.2774 10.3001 32.1328 10.1826C31.9882 10.065 31.8212 9.97811 31.642 9.92708C31.4628 9.87605 31.2751 9.86198 31.0903 9.88571C30.9055 9.90945 30.7275 9.97049 30.567 10.0651C30.4065 10.1598 30.2669 10.2861 30.1567 10.4363L23.3779 18.7688C23.2637 18.9095 23.1784 19.0713 23.127 19.245C23.0755 19.4188 23.0589 19.6009 23.078 19.7811C23.0972 19.9613 23.1518 20.1359 23.2386 20.2949C23.3255 20.4539 23.4429 20.5941 23.5842 20.7076C23.8371 20.9107 24.1537 21.0178 24.4779 21.0101Z" fill="black"/>
<path d="M31.2812 20.9688C32.4203 20.9688 33.3438 20.0453 33.3438 18.9062C33.3438 17.7672 32.4203 16.8438 31.2812 16.8438C30.1422 16.8438 29.2188 17.7672 29.2188 18.9062C29.2188 20.0453 30.1422 20.9688 31.2812 20.9688Z" fill="black"/>
</svg>
