<svg viewBox="0 0 44 44" fill="none" xmlns="http://www.w3.org/2000/svg">
<path d="M43.4638 30.1675C43.2938 29.7961 43.0516 29.4623 42.7514 29.1854C42.4512 28.9085 42.0989 28.6941 41.715 28.5546C41.3311 28.4151 40.9234 28.3534 40.5154 28.373C40.1075 28.3926 39.7075 28.4931 39.3388 28.6688L29.6175 32.5875V32.4638C29.4968 31.5331 29.0404 30.6785 28.334 30.0606C27.6275 29.4428 26.7197 29.1043 25.7812 29.1088C24.2 29.1088 22.3025 28.6963 16.8713 26.5238C14.1213 25.6163 9.99625 26.015 7.9475 26.29V26.125C7.94573 25.9866 7.91647 25.8499 7.86143 25.7229C7.80639 25.5959 7.72667 25.4811 7.62688 25.3851C7.5271 25.2892 7.40925 25.214 7.28018 25.164C7.1511 25.114 7.01338 25.0901 6.875 25.0938H1.375C1.1026 25.0973 0.842364 25.2071 0.649734 25.3997C0.457104 25.5924 0.347311 25.8526 0.34375 26.125V40.6175C0.34375 40.891 0.452399 41.1533 0.645796 41.3467C0.839193 41.5401 1.1015 41.6488 1.375 41.6488H6.875C7.06332 41.6466 7.24746 41.5929 7.40744 41.4936C7.56742 41.3942 7.69713 41.2529 7.7825 41.085C11.4904 41.7033 15.2434 42.0115 19.0025 42.0063C24.585 42.0063 30.1813 41.305 33.5088 39.3938C37.7575 36.96 41.7588 34.3888 41.7588 34.3888C42.1492 34.2252 42.5034 33.9859 42.8008 33.6846C43.0982 33.3834 43.3329 33.0262 43.4915 32.6337C43.65 32.2411 43.7292 31.8211 43.7244 31.3978C43.7197 30.9745 43.6311 30.5564 43.4638 30.1675ZM5.84375 39.5863H2.40625V27.2113H5.84375V39.5863ZM40.7138 32.6013C40.7138 32.6013 36.7125 35.1863 32.4638 37.6063C27.3075 40.5625 15.2075 40.3563 7.87875 38.9813V28.38C9.625 28.1188 13.6812 27.6513 16.1287 28.4625C21.8487 30.745 23.87 31.2125 25.7537 31.2125C26.1887 31.2053 26.6111 31.3583 26.9407 31.6422C27.2702 31.9261 27.484 32.3213 27.5413 32.7525C27.5476 32.8716 27.5476 32.9909 27.5413 33.11H19.25C18.9765 33.11 18.7142 33.2187 18.5208 33.4121C18.3274 33.6054 18.2188 33.8678 18.2188 34.1413C18.2188 34.4148 18.3274 34.6771 18.5208 34.8705C18.7142 35.0639 18.9765 35.1725 19.25 35.1725H28.6137C28.745 35.1709 28.8751 35.1476 28.9988 35.1038L40.1225 30.6213C40.92 30.305 41.4012 30.6213 41.58 31.0475C41.7588 31.4738 41.69 32.1063 40.7138 32.6013ZM19.4837 18.8513H21.3813V17.1875H23.7738V15.7163H21.3813V14.41H23.045C23.6518 14.4293 24.256 14.3216 24.8187 14.0938C25.2726 13.9024 25.6804 13.6164 26.015 13.255C26.3062 12.9129 26.5343 12.5218 26.6887 12.1C26.824 11.7014 26.8936 11.2834 26.895 10.8625C26.8942 10.2742 26.7677 9.69286 26.5238 9.15751C26.2839 8.58205 25.8642 8.09968 25.3275 7.78251C24.6281 7.40472 23.8391 7.22412 23.045 7.26001H19.4837V12.6363H18.2188V14.41H19.4837V15.7163H18.2188V17.1875H19.4837V18.8513ZM21.3813 9.08876H23.1413C23.5293 9.06565 23.9146 9.16679 24.2412 9.37751C24.4914 9.55008 24.6833 9.79464 24.7913 10.0788C24.8865 10.3341 24.9376 10.6038 24.9425 10.8763C24.9407 11.1593 24.8847 11.4393 24.7775 11.7013C24.652 11.9755 24.4519 12.209 24.2 12.375C23.8827 12.5709 23.5138 12.6668 23.1413 12.65H21.3813V9.08876ZM22 24.4063C24.2436 24.4063 26.4368 23.741 28.3022 22.4945C30.1677 21.248 31.6217 19.4764 32.4803 17.4036C33.3388 15.3308 33.5635 13.0499 33.1258 10.8494C32.6881 8.64898 31.6077 6.62771 30.0212 5.04126C28.4348 3.45481 26.4135 2.37442 24.2131 1.93672C22.0126 1.49902 19.7317 1.72367 17.6589 2.58225C15.5861 3.44083 13.8145 4.89478 12.568 6.76026C11.3215 8.62573 10.6562 10.8189 10.6562 13.0625C10.6599 16.0699 11.8562 18.9532 13.9828 21.0797C16.1094 23.2063 18.9926 24.4026 22 24.4063ZM22 3.78126C23.8357 3.78126 25.6301 4.32559 27.1564 5.34543C28.6827 6.36526 29.8723 7.8148 30.5748 9.51072C31.2772 11.2067 31.461 13.0728 31.1029 14.8732C30.7448 16.6736 29.8608 18.3273 28.5628 19.6253C27.2648 20.9233 25.6111 21.8073 23.8107 22.1654C22.0103 22.5235 20.1441 22.3397 18.4482 21.6373C16.7523 20.9348 15.3028 19.7452 14.2829 18.2189C13.2631 16.6926 12.7188 14.8982 12.7188 13.0625C12.7224 10.6021 13.7014 8.24347 15.4412 6.50369C17.181 4.7639 19.5396 3.78489 22 3.78126Z" fill="black" stroke="black" stroke-width="0.5"/>
</svg>
