<svg viewBox="0 0 74 52" fill="none" xmlns="http://www.w3.org/2000/svg">
<path d="M38.0771 2.22461C44.159 2.22472 49.1083 7.17469 49.1084 13.2568C49.1084 17.183 48.5464 21.0761 47.4365 24.8408L47.207 25.5918L40.4297 47.0547C39.9552 48.556 38.5853 49.5596 37.0107 49.5596C35.7298 49.5595 34.5521 48.8617 33.9375 47.7363H33.9385L29.623 39.8252V39.8242L29.458 39.5449C28.5872 38.1789 27.076 37.3429 25.4414 37.3428C23.8062 37.3428 22.2949 38.1788 21.4238 39.5449L21.2588 39.8252H21.2578L16.9443 47.7363C16.3305 48.8612 15.1533 49.5595 13.8711 49.5596C12.3948 49.5596 11.0986 48.6774 10.5518 47.3301L10.4531 47.0547L3.6748 25.5918C2.41291 21.5949 1.77344 17.4446 1.77344 13.2568C1.77349 7.17458 6.72299 2.22478 12.8027 2.22461C15.6776 2.22461 17.4963 2.76027 19.2275 3.3252C20.9923 3.90108 22.8257 4.57324 25.4414 4.57324C28.0571 4.57317 29.8897 3.90107 31.6543 3.3252C33.3855 2.7602 35.2037 2.22461 38.0771 2.22461Z" fill="white" stroke="#010101" stroke-width="3"/>
<path d="M61.4678 2.22461C67.5496 2.22472 72.499 7.17469 72.499 13.2568C72.499 17.183 71.937 21.0761 70.8271 24.8408L70.5977 25.5918L63.8203 47.0547C63.3458 48.556 61.9759 49.5596 60.4014 49.5596C59.1205 49.5595 57.9428 48.8617 57.3281 47.7363H57.3291L53.0137 39.8252V39.8242L52.8486 39.5449C51.9778 38.1789 50.4666 37.3429 48.832 37.3428C47.1968 37.3428 45.6855 38.1788 44.8145 39.5449L44.6494 39.8252H44.6484L40.335 47.7363C39.7211 48.8612 38.5439 49.5595 37.2617 49.5596C35.7854 49.5596 34.4892 48.6774 33.9424 47.3301L33.8438 47.0547L27.0654 25.5918C25.8035 21.5949 25.1641 17.4446 25.1641 13.2568C25.1641 7.17458 30.1136 2.22478 36.1934 2.22461C39.0682 2.22461 40.8869 2.76027 42.6182 3.3252C44.383 3.90108 46.2163 4.57324 48.832 4.57324C51.4477 4.57317 53.2804 3.90107 55.0449 3.3252C56.7761 2.7602 58.5944 2.22461 61.4678 2.22461Z" fill="#F9FCF9" stroke="#010101" stroke-width="3"/>
</svg>
