<svg viewBox="0 0 101 100" fill="none" xmlns="http://www.w3.org/2000/svg">
<path d="M64.6618 21.4287H71.8047C73.6991 21.4287 75.5159 22.1813 76.8554 23.5208C78.195 24.8604 78.9475 26.6772 78.9475 28.5716V78.5716C78.9475 80.466 78.195 82.2828 76.8554 83.6223C75.5159 84.9619 73.6991 85.7144 71.8047 85.7144H28.9475C27.0531 85.7144 25.2363 84.9619 23.8968 83.6223C22.5572 82.2828 21.8047 80.466 21.8047 78.5716V28.5716C21.8047 26.6772 22.5572 24.8604 23.8968 23.5208C25.2363 22.1813 27.0531 21.4287 28.9475 21.4287H36.0904" stroke="#AE8EF8" stroke-width="5" stroke-linecap="round" stroke-linejoin="round"/>
<path d="M61.0859 14.2856H39.6574C37.6849 14.2856 36.0859 15.8846 36.0859 17.8571V24.9999C36.0859 26.9724 37.6849 28.5714 39.6574 28.5714H61.0859C63.0584 28.5714 64.6574 26.9724 64.6574 24.9999V17.8571C64.6574 15.8846 63.0584 14.2856 61.0859 14.2856Z" stroke="#AE8EF8" stroke-width="5" stroke-linecap="round" stroke-linejoin="round"/>
</svg>
