<svg viewBox="0 0 71 72" fill="none" xmlns="http://www.w3.org/2000/svg">
<g clip-path="url(#clip0_6344_6764)">
<mask id="mask0_6344_6764" style="mask-type:luminance" maskUnits="userSpaceOnUse" x="0" y="0" width="71" height="72">
<path d="M71 0.5H0V71.5H71V0.5Z" fill="white"/>
<path d="M38.2734 30.4531C38.2734 31.9849 37.0316 33.2266 35.5 33.2266C33.9682 33.2266 32.7266 31.9849 32.7266 30.4531C32.7266 28.9214 33.9682 27.6797 35.5 27.6797C37.0316 27.6797 38.2734 28.9214 38.2734 30.4531Z" fill="white"/>
<path d="M38.2734 41.5469C38.2734 43.0786 37.0316 44.3203 35.5 44.3203C33.9682 44.3203 32.7266 43.0786 32.7266 41.5469C32.7266 40.0151 33.9682 38.7734 35.5 38.7734C37.0316 38.7734 38.2734 40.0151 38.2734 41.5469Z" fill="white"/>
<path d="M32.7266 36C32.7266 37.5318 31.4848 38.7734 29.9531 38.7734C28.4214 38.7734 27.1797 37.5318 27.1797 36C27.1797 34.4682 28.4214 33.2266 29.9531 33.2266C31.4848 33.2266 32.7266 34.4682 32.7266 36Z" fill="white"/>
<path d="M43.8203 36C43.8203 37.5318 42.5786 38.7734 41.0469 38.7734C39.5151 38.7734 38.2734 37.5318 38.2734 36C38.2734 34.4682 39.5151 33.2266 41.0469 33.2266C42.5786 33.2266 43.8203 34.4682 43.8203 36Z" fill="white"/>
</mask>
<g mask="url(#mask0_6344_6764)">
<path d="M55.1111 36L35.5 16.3889" stroke="#AE8EF8" stroke-width="5" stroke-miterlimit="10" stroke-linecap="round" stroke-linejoin="round"/>
<mask id="mask1_6344_6764" style="mask-type:luminance" maskUnits="userSpaceOnUse" x="0" y="0" width="71" height="72">
<path d="M0 0.500008H71V71.5H0V0.500008Z" fill="white"/>
</mask>
<g mask="url(#mask1_6344_6764)">
<path d="M28.2117 9.10038L26.4461 7.33481C23.9367 4.8254 20.4699 3.27325 16.6406 3.27325C8.98191 3.27325 2.77344 9.48172 2.77344 17.1404C2.77344 20.9697 4.32545 24.4365 6.835 26.9459L8.59987 28.7109" stroke="#AE8EF8" stroke-width="5" stroke-miterlimit="10" stroke-linecap="round" stroke-linejoin="round"/>
<path d="M15.8906 36.0002L35.5017 55.6113" stroke="#AE8EF8" stroke-width="5" stroke-miterlimit="10" stroke-linecap="round" stroke-linejoin="round"/>
<path d="M42.7891 62.8994L44.5545 64.665C47.064 67.1744 50.5308 68.7266 54.3601 68.7266C62.0188 68.7266 68.2273 62.5181 68.2273 54.8594C68.2273 51.0301 66.6751 47.5633 64.1657 45.0539L62.4009 43.2889" stroke="#AE8EF8" stroke-width="5" stroke-miterlimit="10" stroke-linecap="round" stroke-linejoin="round"/>
<path d="M6.835 45.0538C4.32559 47.5632 2.77344 51.03 2.77344 54.8594C2.77344 62.5179 8.98192 68.7266 16.6406 68.7266C20.4699 68.7266 23.9367 67.1744 26.4461 64.6649L64.165 26.9461C66.6744 24.4367 68.2266 20.9699 68.2266 17.1406C68.2266 9.48192 62.0179 3.27344 54.3594 3.27344C50.5301 3.27344 47.0633 4.8256 44.5537 7.335L6.835 45.0538Z" stroke="#AE8EF8" stroke-width="5" stroke-miterlimit="10" stroke-linecap="round" stroke-linejoin="round"/>
<path d="M38.2734 30.4531C38.2734 31.9849 37.0316 33.2266 35.5 33.2266C33.9682 33.2266 32.7266 31.9849 32.7266 30.4531C32.7266 28.9214 33.9682 27.6797 35.5 27.6797C37.0316 27.6797 38.2734 28.9214 38.2734 30.4531Z" fill="#AE8EF8"/>
<path d="M38.2734 41.5469C38.2734 43.0786 37.0316 44.3203 35.5 44.3203C33.9682 44.3203 32.7266 43.0786 32.7266 41.5469C32.7266 40.0151 33.9682 38.7734 35.5 38.7734C37.0316 38.7734 38.2734 40.0151 38.2734 41.5469Z" fill="#AE8EF8"/>
<path d="M32.7266 36C32.7266 37.5318 31.4848 38.7734 29.9531 38.7734C28.4214 38.7734 27.1797 37.5318 27.1797 36C27.1797 34.4682 28.4214 33.2266 29.9531 33.2266C31.4848 33.2266 32.7266 34.4682 32.7266 36Z" fill="#AE8EF8"/>
<path d="M43.8203 36C43.8203 37.5318 42.5786 38.7734 41.0469 38.7734C39.5151 38.7734 38.2734 37.5318 38.2734 36C38.2734 34.4682 39.5151 33.2266 41.0469 33.2266C42.5786 33.2266 43.8203 34.4682 43.8203 36Z" fill="#AE8EF8"/>
</g>
</g>
</g>
<defs>
<clipPath id="clip0_6344_6764">
<rect width="71" height="71" fill="white" transform="translate(0 0.5)"/>
</clipPath>
</defs>
</svg>
