<svg viewBox="0 0 72 81" fill="none" xmlns="http://www.w3.org/2000/svg">
<g clip-path="url(#clip0_6344_6734)">
<path d="M34.6644 80.4996C15.551 80.4996 0 64.9487 0 45.8353C0 26.7219 15.551 11.1709 34.6644 11.1709C53.7777 11.1709 69.3287 26.7219 69.3287 45.8353C69.3287 64.9487 53.7777 80.4996 34.6644 80.4996ZM34.6644 16.5039C18.4921 16.5039 5.33298 29.663 5.33298 45.8353C5.33298 62.0075 18.4921 75.1666 34.6644 75.1666C50.8366 75.1666 63.9957 62.0075 63.9957 45.8353C63.9957 29.663 50.8366 16.5039 34.6644 16.5039Z" fill="#AE8EF8"/>
<path d="M31.8438 3.16602H37.1767V13.8373H31.8438V3.16602Z" fill="#AE8EF8"/>
<path d="M29.1719 0.5H39.8378V5.83298H29.1719V0.5Z" fill="#AE8EF8"/>
<path d="M56.2656 21.0664L63.8095 13.5226L67.5805 17.2935L60.0366 24.8374L56.2656 21.0664Z" fill="#AE8EF8"/>
<path d="M60.0391 13.5225L63.81 9.75148L71.352 17.2934L67.581 21.0644L60.0391 13.5225Z" fill="#AE8EF8"/>
<path d="M34.4995 53.83C30.0891 53.83 26.5 50.2409 26.5 45.8305C26.5 41.4201 30.0891 37.8311 34.4995 37.8311C38.9098 37.8311 42.4989 41.4201 42.4989 45.8305C42.4989 50.2409 38.9098 53.83 34.4995 53.83ZM34.4995 43.164C33.0302 43.164 31.833 44.3586 31.833 45.8305C31.833 47.3024 33.0302 48.497 34.4995 48.497C35.9687 48.497 37.166 47.3024 37.166 45.8305C37.166 44.3586 35.9687 43.164 34.4995 43.164Z" fill="#AE8EF8"/>
<path d="M31.8438 21.8369H37.1767V40.497H31.8438V21.8369Z" fill="#AE8EF8"/>
<path d="M31.8438 51.1875H37.1767V59.1763H31.8438V51.1875Z" fill="#AE8EF8"/>
</g>
<defs>
<clipPath id="clip0_6344_6734">
<rect width="71.3579" height="80" fill="white" transform="translate(0 0.5)"/>
</clipPath>
</defs>
</svg>
