<svg viewBox="0 0 80 80" fill="none" xmlns="http://www.w3.org/2000/svg">
<g clip-path="url(#clip0_6344_6805)">
<path d="M58.3307 80C57.8074 80 57.2841 79.8367 56.8407 79.5067C54.7741 77.97 36.6641 64.1667 36.6641 52.46C36.6641 45.59 42.2707 40 49.1641 40C52.7074 40 56.0107 41.4867 58.3307 43.98C60.6507 41.4867 63.9541 40 67.4974 40C74.3907 40 79.9974 45.59 79.9974 52.46C79.9974 64.1667 61.8874 77.97 59.8207 79.5067C59.3774 79.8367 58.8541 80 58.3307 80ZM49.1641 45C45.0274 45 41.6641 48.3467 41.6641 52.46C41.6641 59.5867 52.5841 69.76 58.3307 74.34C64.0774 69.76 74.9974 59.5867 74.9974 52.46C74.9974 48.3467 71.6341 45 67.4974 45C64.5074 45 61.8074 46.7567 60.6207 49.4733C59.8274 51.3 56.8307 51.3 56.0374 49.4733C54.8541 46.7567 52.1541 45 49.1641 45Z" fill="#AE8EF8"/>
<path d="M17.2667 70C13.11 70 9.64667 66.8733 9.21 62.7267L7.98 51.37C7.57333 47.41 6.72333 43.4067 5.45333 39.4667L3.08333 32.0233C1.04 25.6467 0 18.9967 0 12.2667C0 5.48667 5.48667 0 12.2333 0C16.8733 0 21.3933 1.15 26.2867 3.51667C29.9133 5.32 33.42 5.31667 37.02 3.52667C41.94 1.15 46.46 0 50.8667 0C57.8467 0 63.3333 5.48667 63.3333 12.2333C63.3333 18.9967 62.2933 25.6467 60.2467 32.03L59.62 34.0433C59.21 35.3633 57.8133 36.0967 56.49 35.69C55.17 35.28 54.4333 33.88 54.8433 32.56L55.4767 30.5267C57.3733 24.6133 58.3333 18.4767 58.3333 12.2667C58.3333 8.24333 55.0867 5 51.1 5C47.23 5 43.4233 5.98667 39.22 8.01667C34.2167 10.5 29.1167 10.5 24.09 8.00667C19.91 5.98667 16.1033 5 12.4667 5C8.24667 5 5 8.24667 5 12.2333C5 18.48 5.96 24.6133 7.84667 30.5033L10.2133 37.94C11.59 42.2033 12.51 46.55 12.95 50.8433L14.18 62.1967C14.3533 63.8 15.6767 65 17.2667 65C18.77 65 20.0633 63.9233 20.34 62.44L23.44 45.8433C24.2033 41.9233 27.4767 39.13 31.4033 39.0367C32.7433 39.0033 33.93 40.0967 33.9667 41.4733C34 42.8567 32.91 44 31.5267 44.0367C29.9667 44.0733 28.6633 45.2033 28.3533 46.7833L25.2567 63.3633C24.5367 67.21 21.1767 70 17.2667 70Z" fill="#AE8EF8"/>
</g>
<defs>
<clipPath id="clip0_6344_6805">
<rect width="80" height="80" fill="white"/>
</clipPath>
</defs>
</svg>
