<svg viewBox="0 0 101 100" fill="none" xmlns="http://www.w3.org/2000/svg">
<path d="M67.9788 82.1429V75.0001C67.9788 71.2113 66.4737 67.5776 63.7946 64.8985C61.1155 62.2195 57.4819 60.7144 53.6931 60.7144H25.1217C21.3328 60.7144 17.6992 62.2195 15.0201 64.8985C12.341 67.5776 10.8359 71.2113 10.8359 75.0001V82.1429" stroke="#AE8EF8" stroke-width="5" stroke-linecap="round" stroke-linejoin="round"/>
<path d="M39.4107 46.4284C47.3005 46.4284 53.6964 40.0324 53.6964 32.1426C53.6964 24.2529 47.3005 17.8569 39.4107 17.8569C31.5209 17.8569 25.125 24.2529 25.125 32.1426C25.125 40.0324 31.5209 46.4284 39.4107 46.4284Z" stroke="#AE8EF8" stroke-width="5" stroke-linecap="round" stroke-linejoin="round"/>
<path d="M89.4096 82.143V75.0001C89.4072 71.8349 88.3537 68.76 86.4145 66.2584C84.4752 63.7568 81.7601 61.97 78.6953 61.1787" stroke="#AE8EF8" stroke-width="5" stroke-linecap="round" stroke-linejoin="round"/>
<path d="M64.4141 18.3213C67.487 19.1081 70.2106 20.8952 72.1556 23.401C74.1006 25.9067 75.1564 28.9885 75.1564 32.1606C75.1564 35.3326 74.1006 38.4144 72.1556 40.9202C70.2106 43.4259 67.487 45.2131 64.4141 45.9999" stroke="#AE8EF8" stroke-width="5" stroke-linecap="round" stroke-linejoin="round"/>
</svg>
