<svg width="29" height="28" viewBox="0 0 29 28" fill="none" xmlns="http://www.w3.org/2000/svg">
<g clip-path="url(#clip0_4278_2907)">
<path d="M14.1458 28C6.3345 28 0 21.7308 0 14C0 6.2692 6.3345 0 14.1458 0C21.9572 0 28.2917 6.2692 28.2917 14C28.2917 21.7308 21.9572 28 14.1458 28Z" fill="#25D366"/>
<path fill-rule="evenodd" clip-rule="evenodd" d="M20.416 7.73212C18.7465 6.07717 16.5223 5.16575 14.1554 5.16309C9.27887 5.16309 5.30708 9.09126 5.30708 13.9202C5.30708 15.4632 5.71368 16.9716 6.48919 18.2988L5.23438 22.8372L9.92512 21.6193C11.2176 22.3175 12.6717 22.6853 14.1527 22.6853H14.1554C19.032 22.6853 23.0011 18.7571 23.0038 13.9282C23.0064 11.5883 22.0882 9.38708 20.416 7.73212ZM14.1581 21.2063H14.1554C12.836 21.2063 11.5408 20.8545 10.4125 20.1909L10.1432 20.0337L7.35894 20.7559L8.10214 18.0696L7.92711 17.7951C7.192 16.6358 6.80155 15.298 6.80155 13.9202C6.80424 9.90674 10.1028 6.64215 14.1608 6.64215C16.1265 6.64215 17.971 7.40167 19.3605 8.7768C20.7499 10.1519 21.5147 11.9828 21.512 13.9255C21.512 17.9417 18.2107 21.2063 14.1581 21.2063ZM18.1918 15.7537C17.971 15.6444 16.8832 15.1141 16.6812 15.0422C16.4792 14.9702 16.3311 14.9329 16.183 15.1514C16.0349 15.3699 15.6122 15.863 15.4829 16.0095C15.3537 16.1561 15.2244 16.1748 15.0036 16.0655C14.7828 15.9562 14.0692 15.7244 13.2264 14.9782C12.5694 14.3972 12.1251 13.6804 11.9958 13.4618C11.8666 13.2433 11.9824 13.1234 12.0928 13.0141C12.1924 12.9155 12.3136 12.7583 12.424 12.6304C12.5344 12.5024 12.5721 12.4118 12.6448 12.2653C12.7175 12.1187 12.6825 11.9908 12.6259 11.8815C12.5694 11.7722 12.1278 10.6956 11.9447 10.2559C11.7643 9.82946 11.5838 9.88809 11.4465 9.8801C11.3173 9.87477 11.1692 9.8721 11.0238 9.8721C10.8757 9.8721 10.636 9.92807 10.4341 10.1466C10.2321 10.3651 9.66124 10.8955 9.66124 11.9721C9.66124 13.0488 10.4529 14.0908 10.5633 14.2347C10.6737 14.3812 12.1224 16.5905 14.3412 17.5392C14.869 17.7658 15.281 17.899 15.6014 18.0003C16.1319 18.1682 16.6139 18.1442 16.9936 18.0882C17.419 18.0243 18.3022 17.5579 18.4853 17.0489C18.6684 16.5372 18.6684 16.1002 18.6146 16.0095C18.5607 15.9189 18.4126 15.8656 18.1918 15.7537Z" fill="white"/>
</g>
<defs>
<clipPath id="clip0_4278_2907">
<rect width="28.2917" height="28" fill="white"/>
</clipPath>
</defs>
</svg>
