<svg viewBox="0 0 24 24" fill="none" xmlns="http://www.w3.org/2000/svg">
<g clip-path="url(#clip0_4278_2873)">
<circle cx="12" cy="12" r="12" fill="#AE8EF8"/>
<path d="M12.1897 3C8.22526 3 5 6.13852 5 9.99637C5 10.0374 5 10.0872 5.00191 10.1421C5.00203 10.1647 5.00259 10.1868 5.00349 10.2088C5.02858 11.0418 5.20228 11.8497 5.52031 12.6139V12.6469L5.52121 12.6486V12.6565L5.64834 12.9007C5.72247 13.0432 5.80584 13.1838 5.89584 13.3186C6.15515 13.7062 6.53787 14.2241 7.03378 14.8585L7.08867 14.9288L7.0907 14.9306C8.50606 16.7352 10.5171 19.0831 11.3235 20.0174L12.1716 21L13.0238 20.021C13.8461 19.0764 15.9136 16.682 17.3488 14.8566C17.8468 14.2246 18.215 13.7302 18.4737 13.3466C18.5465 13.2385 18.6151 13.126 18.6775 13.0119L18.6917 12.9861L18.7045 12.9595C19.1164 12.1045 19.3422 11.1891 19.3757 10.2386L19.3764 10.2188V10.2145C19.3787 10.1479 19.38 10.0764 19.38 9.99637C19.38 6.13852 16.1544 3 12.1897 3ZM18.2514 10.1928V10.1989C18.2228 11.0097 18.0253 11.7773 17.6909 12.4713C17.6444 12.5561 17.5944 12.6383 17.5407 12.7179C17.2824 13.1013 16.9042 13.6031 16.4644 14.1612C15.0207 15.9975 12.9074 18.4412 12.1754 19.2823C11.4486 18.4404 9.36039 16.007 7.92196 14.1673C7.92106 14.1664 7.92106 14.1664 7.92016 14.1656C7.475 13.5963 7.09239 13.0839 6.83139 12.6937C6.76434 12.5933 6.70257 12.4895 6.64632 12.3813C6.64632 12.3804 6.64542 12.3796 6.64542 12.3787C6.33256 11.6994 6.1502 10.9517 6.12781 10.1651C6.12691 10.1495 6.12691 10.134 6.12691 10.1175C6.12511 10.0777 6.12511 10.0371 6.12511 9.99637C6.125 6.7539 8.83996 4.125 12.1897 4.125C15.5392 4.125 18.255 6.7539 18.255 9.99637C18.255 10.0622 18.2541 10.1279 18.2514 10.1928Z" fill="white"/>
<path d="M12.1875 6.92188C10.4815 6.92188 9.09375 8.30967 9.09375 10.0156C9.09375 11.7216 10.4815 13.1094 12.1875 13.1094C13.8934 13.1094 15.2812 11.7216 15.2812 10.0156C15.2812 8.30979 13.8934 6.92188 12.1875 6.92188ZM12.1875 11.9844C11.1002 11.9844 10.2188 11.1029 10.2188 10.0156C10.2188 8.92831 11.1002 8.04688 12.1875 8.04688C13.2748 8.04688 14.1562 8.92831 14.1562 10.0156C14.1562 11.1029 13.2748 11.9844 12.1875 11.9844Z" fill="white"/>
</g>
<defs>
<clipPath id="clip0_4278_2873">
<rect width="24" height="24" fill="white"/>
</clipPath>
</defs>
</svg>
