<svg width="24" height="24" viewBox="0 0 24 24" fill="none" xmlns="http://www.w3.org/2000/svg">
<g clip-path="url(#clip0_4278_2864)">
<path d="M12 24C5.3736 24 0 18.6264 0 12C0 5.3736 5.3736 0 12 0C18.6264 0 24 5.3736 24 12C24 18.6264 18.6264 24 12 24Z" fill="#AE8EF8"/>
<g clip-path="url(#clip1_4278_2864)">
<path fill-rule="evenodd" clip-rule="evenodd" d="M19.5 8.25C19.5 6.18 17.82 4.5 15.75 4.5H8.25C6.18 4.5 4.5 6.18 4.5 8.25V15.75C4.5 17.82 6.18 19.5 8.25 19.5H15.75C17.82 19.5 19.5 17.82 19.5 15.75V8.25Z" stroke="white" stroke-width="1.3" stroke-miterlimit="1.5" stroke-linecap="round" stroke-linejoin="round"/>
<path d="M8.25 15V9L12 15L15.75 9V15" stroke="white" stroke-width="1.3" stroke-miterlimit="1.5" stroke-linecap="round" stroke-linejoin="round"/>
</g>
</g>
<defs>
<clipPath id="clip0_4278_2864">
<rect width="24" height="24" fill="white"/>
</clipPath>
<clipPath id="clip1_4278_2864">
<rect width="18" height="18" fill="white" transform="translate(3 3)"/>
</clipPath>
</defs>
</svg>
