<svg width="24" height="24" viewBox="0 0 24 24" fill="none" xmlns="http://www.w3.org/2000/svg">
<rect width="24" height="24" rx="12" fill="#AE8EF8"/>
<path d="M17.6537 14.8119V16.5262C17.6543 16.6853 17.6217 16.8429 17.558 16.9887C17.4942 17.1345 17.4007 17.2654 17.2835 17.373C17.1662 17.4806 17.0277 17.5625 16.877 17.6134C16.7262 17.6644 16.5665 17.6834 16.408 17.669C14.6496 17.478 12.9606 16.8771 11.4766 15.9148C10.0959 15.0374 8.92532 13.8669 8.04799 12.4862C7.08226 10.9954 6.48127 9.29818 6.2937 7.5319C6.27942 7.37388 6.2982 7.21462 6.34884 7.06426C6.39949 6.9139 6.48088 6.77572 6.58785 6.65854C6.69482 6.54136 6.82502 6.44774 6.97015 6.38363C7.11529 6.31952 7.27218 6.28634 7.43084 6.28619H9.14513C9.42245 6.28346 9.6913 6.38166 9.90156 6.56249C10.1118 6.74332 10.2492 6.99444 10.288 7.26905C10.3603 7.81765 10.4945 8.35632 10.688 8.87476C10.7649 9.07929 10.7815 9.30157 10.7359 9.51526C10.6904 9.72896 10.5845 9.92511 10.4308 10.0805L9.70513 10.8062C10.5186 12.2368 11.7031 13.4213 13.1337 14.2348L13.8594 13.509C14.0148 13.3554 14.2109 13.2495 14.4246 13.204C14.6383 13.1584 14.8606 13.175 15.0651 13.2519C15.5836 13.4454 16.1222 13.5795 16.6708 13.6519C16.9484 13.6911 17.2019 13.8309 17.3831 14.0448C17.5644 14.2586 17.6607 14.5317 17.6537 14.8119Z" stroke="white" stroke-width="1.3" stroke-linecap="round" stroke-linejoin="round"/>
</svg>
