<svg width="29" height="28" viewBox="0 0 29 28" fill="none" xmlns="http://www.w3.org/2000/svg">
<g clip-path="url(#clip0_4278_2917)">
<ellipse cx="14.7318" cy="14" rx="14.1458" ry="14" fill="#3790E3"/>
<g clip-path="url(#clip1_4278_2917)">
<path d="M21.9232 18.0315C21.4088 17.4145 20.8033 16.8878 20.2304 16.3285C19.7136 15.8244 19.681 15.532 20.0965 14.9502C20.5499 14.3152 21.0375 13.7046 21.4951 13.0724C21.9222 12.4817 22.3587 11.8925 22.5835 11.1852C22.726 10.7351 22.6 10.5364 22.1385 10.4576C22.059 10.4438 21.9768 10.4431 21.8958 10.4431L19.158 10.4398C18.8208 10.4348 18.6344 10.5819 18.5151 10.8807C18.3541 11.2847 18.1881 11.6884 17.9963 12.0782C17.5612 12.9621 17.0751 13.8165 16.3938 14.5399C16.2435 14.6995 16.0773 14.9011 15.8263 14.818C15.5122 14.7034 15.4196 14.1859 15.4248 14.011L15.4221 10.8508C15.3612 10.3994 15.2611 10.1981 14.8129 10.1104L11.9688 10.1109C11.5892 10.1109 11.3988 10.2576 11.1961 10.495C11.0792 10.6322 11.0439 10.7212 11.2842 10.7667C11.7563 10.8562 12.0222 11.1617 12.0927 11.635C12.2059 12.3912 12.198 13.1505 12.1329 13.9098C12.1137 14.1315 12.0756 14.3526 11.9876 14.5596C11.8501 14.885 11.628 14.9513 11.3363 14.7511C11.0722 14.5699 10.8867 14.3141 10.7051 14.0573C10.023 13.0936 9.47879 12.0542 9.03505 10.962C8.90683 10.6465 8.68567 10.4552 8.35134 10.4501C7.52992 10.437 6.70833 10.4348 5.88691 10.4508C5.39267 10.4601 5.24529 10.7 5.44657 11.1481C6.34122 13.1381 7.33706 15.0729 8.63696 16.8353C9.30438 17.7398 10.0706 18.5383 11.0606 19.1042C12.1825 19.7456 13.3901 19.9387 14.6621 19.8792C15.2577 19.8513 15.4366 19.6964 15.4642 19.1028C15.4828 18.6966 15.5288 18.2928 15.7292 17.9279C15.9258 17.5697 16.2236 17.5015 16.5669 17.7243C16.7387 17.8358 16.8834 17.9778 17.02 18.1275C17.3552 18.4943 17.6784 18.8721 18.0264 19.2265C18.4628 19.6706 18.9798 19.933 19.6298 19.8794L22.1462 19.88C22.5516 19.8535 22.7618 19.3563 22.529 18.9038C22.3656 18.5869 22.151 18.3046 21.9232 18.0315Z" fill="white"/>
</g>
</g>
<defs>
<clipPath id="clip0_4278_2917">
<rect width="28.2917" height="28" fill="white" transform="translate(0.585938)"/>
</clipPath>
<clipPath id="clip1_4278_2917">
<rect width="17.28" height="17.28" fill="white" transform="translate(5.35938 6.35938)"/>
</clipPath>
</defs>
</svg>
