<svg width="454" height="423" viewBox="0 0 454 423" fill="none" xmlns="http://www.w3.org/2000/svg">
<path d="M133.768 116.539L133.767 116.538L92.2835 58.9729C92.2827 58.9718 92.2819 58.9707 92.2812 58.9696M133.768 116.539L124.782 0.695376C107.407 -1.76998 90.6362 7.20463 83.0491 23.0299C76.8201 36.0223 78.181 51.3624 86.6022 63.0622L92.2812 58.9696M133.768 116.539C140.765 126.254 141.896 139 136.722 149.792C131.546 160.588 120.901 167.684 108.943 168.314L108.94 168.314L38.088 172.016C38.0874 172.016 38.0869 172.016 38.0863 172.016C26.2522 172.638 15.7182 179.661 10.5928 190.351C4.32567 203.423 7.21356 218.826 17.7888 228.738C17.789 228.738 17.7891 228.738 17.7892 228.739L147.111 349.923L133.768 116.539ZM92.2812 58.9696C85.3571 49.3473 84.2401 36.7376 89.3611 26.0561C95.6282 12.9842 109.446 5.58953 123.799 7.62597M92.2812 58.9696L123.799 7.62597M123.799 7.62597L299.261 32.5659C299.262 32.566 299.262 32.566 299.262 32.5661C332.421 37.2838 364.537 47.0115 394.713 61.479C440.293 83.3316 459.602 138.197 437.75 183.776C427.656 204.831 417.279 216.339 407.216 226.874C406.479 227.646 405.74 228.415 405.001 229.186C395.535 239.045 385.966 249.011 378.061 265.498C370.159 281.98 368.382 295.677 366.623 309.23C366.485 310.291 366.347 311.351 366.207 312.412C364.295 326.855 361.818 342.157 351.718 363.223C329.873 408.788 275.005 428.092 229.424 406.239C199.248 391.771 171.552 372.824 147.111 349.923L123.799 7.62597Z" stroke="url(#paint0_linear_7072_61)" stroke-width="14"/>
<defs>
<linearGradient id="paint0_linear_7072_61" x1="12.3433" y1="317.15" x2="212.46" y2="165.653" gradientUnits="userSpaceOnUse">
<stop stop-color="#AE8EF8"/>
<stop offset="1" stop-color="#CBB3EF"/>
</linearGradient>
</defs>
</svg>
