<svg viewBox="0 0 119 27" fill="none" xmlns="http://www.w3.org/2000/svg">
<g clip-path="url(#clip0_4158_3172)">
<path d="M114.941 18.654L114.915 7.54422L109.413 16.6965H107.464L101.989 7.78228V18.654H97.9297V0.137695H101.508L108.505 11.6442L115.395 0.137695H118.947L119 18.654H114.941Z" fill="#010101"/>
<path d="M94.49 15.2153V18.654H80.0156V0.137695H94.1428V3.57644H84.3152V7.59713H92.9944V10.9301H84.3152V15.2153H94.49Z" fill="#010101"/>
<path d="M64.8806 10.1984C64.5902 10.5066 65.1709 10.8147 65.1709 11.1229C65.1709 11.2924 65.0828 11.3694 65.0051 11.4542C64.8961 11.5749 64.9064 11.7598 65.0154 11.8805C65.0621 11.9344 65.0853 12.0012 65.0853 12.0679C65.0853 12.1732 65.0283 12.276 64.9272 12.3221C64.6705 12.4377 64.3594 12.5584 64.3594 13.0027C64.3594 13.3108 65.3317 14.2763 64.5927 15.129C64.0379 15.771 60.5379 14.8208 60.2502 15.7452C60.0194 16.4797 60.0143 17.833 60.0194 18.3569C60.0194 18.4339 59.9624 18.4981 59.8898 18.4981H58.5469V0.188477H60.5483C61.811 0.229564 63.4909 0.391345 64.0121 0.946027C64.8806 1.8705 64.8806 3.41128 64.8806 4.33832C64.8806 5.26278 64.3024 5.26278 64.3024 5.8791C64.3024 6.49541 66.6202 8.65508 66.6202 9.27139C66.6202 9.8877 65.1709 9.89028 64.8806 10.1984Z" fill="#010101"/>
<path d="M65.5231 7.51751C64.9891 6.88065 64.3875 6.15648 64.3875 5.8817C64.3875 5.64032 64.486 5.50935 64.6105 5.34243C64.7661 5.13957 64.9631 4.88277 64.9631 4.34092C64.9631 3.40362 64.9631 1.83715 64.0687 0.881865C63.6668 0.455581 62.635 0.25271 61.5902 0.157695C61.2324 0.129448 60.8772 0.111473 60.5427 0.0986328H58.4531V18.5906H59.8842C59.9413 18.5906 59.9957 18.5649 60.0371 18.5212C60.0787 18.4776 60.1019 18.4211 60.1019 18.3544C60.0942 17.8203 60.1019 16.4951 60.3249 15.7761C60.4597 15.3396 61.5771 15.3883 62.5597 15.4371C63.532 15.4808 64.3668 15.5194 64.6494 15.1957C65.2302 14.523 64.8283 13.7808 64.5872 13.3391C64.5121 13.2004 64.4368 13.0618 64.4368 13.0027C64.4368 12.6406 64.6701 12.5328 64.919 12.4249L64.9528 12.4095C65.0824 12.3504 65.1627 12.2169 65.1627 12.0705C65.1627 11.9756 65.129 11.8908 65.0668 11.8214C64.9891 11.7315 64.9813 11.6006 65.0564 11.521L65.0772 11.4953C65.1549 11.4157 65.2483 11.3155 65.2483 11.1229C65.2483 10.9663 65.1471 10.8302 65.0435 10.6967C64.8802 10.4784 64.8258 10.3782 64.9346 10.2652C65.0254 10.1651 65.3079 10.0906 65.5827 10.0187C66.1013 9.88004 66.6976 9.72596 66.6976 9.274C66.7054 8.953 66.2568 8.39576 65.5231 7.51751ZM65.5517 9.83896C65.225 9.92627 64.9475 9.99817 64.818 10.1317C64.5898 10.3782 64.7817 10.6273 64.9165 10.8122C64.9969 10.9201 65.0824 11.0331 65.0824 11.1229C65.0824 11.2385 65.0357 11.2924 64.9631 11.3643L64.9423 11.39C64.7998 11.5415 64.8024 11.7803 64.9501 11.9473C64.9813 11.9807 64.9969 12.0243 64.9969 12.0705C64.9969 12.1475 64.9553 12.2091 64.8905 12.24L64.8594 12.2554C64.6079 12.3633 64.2683 12.5199 64.2683 13.0053C64.2683 13.1131 64.3409 13.2466 64.442 13.4315C64.6857 13.8835 65.0201 14.4998 64.5275 15.0699C64.2994 15.3292 63.4231 15.2908 62.5701 15.2548C61.4242 15.2009 60.3405 15.1546 60.1616 15.7222C59.9308 16.4669 59.9205 17.8177 59.9308 18.3621C59.9308 18.38 59.9205 18.3903 59.9179 18.3954C59.9101 18.4058 59.8972 18.4109 59.8867 18.4109H58.6294V0.288665H60.5427C62.3524 0.347728 63.5631 0.604523 63.9495 1.02053C64.792 1.91675 64.792 3.43699 64.792 4.34606C64.792 4.8237 64.6313 5.02914 64.4783 5.23201C64.3461 5.4015 64.2086 5.57868 64.2086 5.88684C64.2086 6.20784 64.6572 6.76509 65.3909 7.64591C65.9249 8.28277 66.5291 9.00693 66.5291 9.28171C66.5316 9.58216 66.0105 9.72083 65.5517 9.83896Z" fill="#010101"/>
<path d="M76.7591 9.34725C76.7591 11.1269 76.3261 12.7087 75.4628 14.0929C74.5968 15.4796 73.3809 16.5633 71.8202 17.3363C70.2568 18.1118 68.4523 18.502 66.412 18.502H65.6913C65.6135 18.502 65.5512 18.4353 65.5487 18.3531C65.5409 17.8241 65.5487 16.4811 65.7793 15.7492C66.0698 14.8247 69.5672 15.7749 70.122 15.1329C70.8608 14.2778 69.8887 13.3147 69.8887 13.0066C69.8887 12.5624 70.1997 12.4417 70.4564 12.3261C70.5575 12.2799 70.6146 12.1771 70.6146 12.0718C70.6146 12.018 70.599 11.9615 70.568 11.9152C70.4616 11.7534 70.4798 11.5274 70.6042 11.3811C70.656 11.3195 70.7001 11.245 70.7001 11.1269C70.7001 10.8187 70.122 10.5105 70.4098 10.2024C70.7001 9.89423 72.1468 9.89423 72.1468 9.27792C72.1468 8.6616 69.829 6.50194 69.829 5.88563C69.829 5.26931 70.4072 5.26931 70.4072 4.34485C70.4072 3.42038 70.4072 1.87959 69.5387 0.952547C69.5335 0.947412 69.5282 0.942276 69.5231 0.93714C69.3753 0.793333 69.5024 0.531401 69.6994 0.580191C70.4486 0.770221 71.1538 1.02959 71.8175 1.35828C73.3783 2.13382 74.5968 3.21494 75.4601 4.60164C76.3261 5.98578 76.7591 7.56765 76.7591 9.34725Z" fill="#010101"/>
<path d="M66.4115 18.5936H65.6908C65.5663 18.5936 65.4626 18.4857 65.4626 18.3548C65.4548 17.8104 65.4651 16.4622 65.6959 15.72C65.8748 15.1525 66.9559 15.2014 68.1044 15.2526C68.9548 15.2912 69.8311 15.3323 70.0593 15.0677C70.5544 14.4952 70.22 13.8814 69.9763 13.4295C69.8752 13.2445 69.8026 13.111 69.8026 13.0031C69.8026 12.5178 70.1448 12.3638 70.3911 12.2508L70.4222 12.2353C70.4871 12.2071 70.5259 12.1403 70.5259 12.0658C70.5259 12.0273 70.5156 11.9913 70.4949 11.9606C70.3652 11.7679 70.3833 11.4932 70.539 11.3108C70.5856 11.2569 70.6141 11.2055 70.6141 11.1182C70.6141 11.0284 70.5285 10.9154 70.4481 10.8049C70.3108 10.6226 70.1215 10.371 70.3496 10.127C70.4766 9.9909 70.7567 9.91898 71.0807 9.83424C71.5423 9.71354 72.0634 9.57745 72.0634 9.26673C72.0634 8.99452 71.4592 8.27035 70.9278 7.63093C70.1941 6.75011 69.7481 6.19286 69.7481 5.87444C69.7481 5.56371 69.883 5.38909 70.0126 5.2196C70.1656 5.0193 70.3263 4.8113 70.3263 4.33365C70.3263 3.42459 70.3263 1.90434 69.4838 1.00812L69.4707 0.995286C69.3748 0.900271 69.3515 0.756463 69.4111 0.6332C69.4707 0.509938 69.5978 0.450875 69.7249 0.481692C70.4766 0.67172 71.1948 0.936219 71.8611 1.26492C73.4348 2.04815 74.6741 3.14981 75.54 4.54166C76.4086 5.9412 76.8493 7.55389 76.8493 9.3412C76.8493 11.1285 76.4086 12.7438 75.54 14.1382C74.6715 15.5351 73.4322 16.6368 71.8611 17.4149C70.29 18.1981 68.4571 18.5936 66.4115 18.5936ZM67.1685 15.4093C66.5125 15.4093 65.9577 15.4786 65.8619 15.7791C65.6389 16.4955 65.6311 17.8181 65.6362 18.3522C65.6362 18.3855 65.6622 18.4087 65.6908 18.4087H66.4115C68.4311 18.4087 70.2382 18.0183 71.7834 17.2505C73.3259 16.4878 74.5393 15.4067 75.3897 14.0406C76.2401 12.677 76.6704 11.0977 76.6704 9.34633C76.6704 7.59754 76.2401 6.01567 75.3897 4.6495C74.5419 3.28848 73.3259 2.20736 71.7807 1.43954C71.1274 1.11341 70.4196 0.854048 69.6781 0.666586C69.6186 0.651178 69.577 0.687125 69.5589 0.723077C69.5408 0.761596 69.5355 0.818093 69.5823 0.864317L69.6004 0.882294C70.4949 1.83501 70.4949 3.40148 70.4949 4.33879C70.4949 4.88062 70.3004 5.13742 70.1422 5.34286C70.0152 5.50722 69.9167 5.63818 69.9167 5.88214C69.9167 6.15434 70.5207 6.87851 71.0522 7.51793C71.7859 8.39875 72.2319 8.956 72.2319 9.27443C72.2319 9.72896 71.6408 9.88303 71.117 10.0191C70.8449 10.091 70.5597 10.1655 70.4689 10.2631C70.3601 10.3787 70.4171 10.4788 70.5804 10.6945C70.6816 10.8281 70.7852 10.9667 70.7852 11.1234C70.7852 11.28 70.7204 11.3751 70.666 11.4418C70.5674 11.5574 70.5544 11.7371 70.6348 11.8604C70.6763 11.922 70.6996 11.9965 70.6996 12.071C70.6996 12.2199 70.6167 12.3508 70.4896 12.4099L70.4586 12.4254C70.2097 12.5357 69.9737 12.6436 69.9737 13.0057C69.9737 13.0647 70.0489 13.206 70.1241 13.3395C70.3652 13.7813 70.7645 14.5234 70.1863 15.1936C69.9063 15.5197 69.0689 15.4812 68.0966 15.4376C67.7881 15.4247 67.4667 15.4093 67.1685 15.4093Z" fill="#010101"/>
<path d="M55.2699 0.137695V18.654H51.7181L42.3979 7.41196V18.654H38.125V0.137695H41.7035L50.997 11.3798V0.137695H55.2699Z" fill="#010101"/>
<path d="M29.9869 14.6863H21.3077L19.6519 18.654H15.2188L23.5509 0.137695H27.8238L36.1826 18.654H31.6427L29.9869 14.6863ZM28.625 11.4327L25.6606 4.34355L22.6963 11.4327H28.625Z" fill="#010101"/>
<path d="M5.98203 3.62934H0V0.137695H16.2904V3.62934H10.3083V18.654H5.98203V3.62934Z" fill="#010101"/>
<path d="M3.5597 26.8937C3.1435 26.8937 2.76998 26.8039 2.43914 26.6242C2.11365 26.4445 1.85752 26.1934 1.67076 25.871C1.484 25.5434 1.39062 25.1761 1.39062 24.769C1.39062 24.3621 1.484 23.9974 1.67076 23.6751C1.85752 23.3526 2.11365 23.1016 2.43914 22.9219C2.76998 22.7422 3.1435 22.6523 3.5597 22.6523C3.92255 22.6523 4.24538 22.7236 4.52818 22.8663C4.81632 23.0038 5.04311 23.2072 5.20852 23.4768L4.78431 23.7622C4.64558 23.5561 4.46948 23.4028 4.25605 23.3024C4.04261 23.1967 3.81049 23.1438 3.5597 23.1438C3.25556 23.1438 2.98075 23.2125 2.73529 23.3499C2.49517 23.4821 2.30575 23.6723 2.16701 23.9208C2.03361 24.1692 1.96691 24.4519 1.96691 24.769C1.96691 25.0914 2.03361 25.3768 2.16701 25.6253C2.30575 25.8684 2.49517 26.0587 2.73529 26.196C2.98075 26.3282 3.25556 26.3943 3.5597 26.3943C3.81049 26.3943 4.04261 26.3441 4.25605 26.2437C4.46948 26.1433 4.64558 25.9899 4.78431 25.7839L5.20852 26.0692C5.04311 26.3388 4.81632 26.5449 4.52818 26.6876C4.24004 26.8251 3.91722 26.8937 3.5597 26.8937ZM9.19219 23.1835H7.5994V26.8541H7.03111V23.1835H5.43832V22.684H9.19219V23.1835ZM11.5553 26.8937C11.1498 26.8937 10.7842 26.8039 10.4588 26.6242C10.1333 26.4393 9.87713 26.1855 9.69038 25.8631C9.50362 25.5407 9.41024 25.1761 9.41024 24.769C9.41024 24.3621 9.50362 23.9974 9.69038 23.6751C9.87713 23.3526 10.1333 23.1016 10.4588 22.9219C10.7842 22.7422 11.1498 22.6523 11.5553 22.6523C11.9608 22.6523 12.3264 22.7422 12.6518 22.9219C12.9773 23.1016 13.2308 23.3526 13.4122 23.6751C13.599 23.9974 13.6923 24.3621 13.6923 24.769C13.6923 25.1761 13.599 25.5407 13.4122 25.8631C13.2308 26.1855 12.9773 26.4393 12.6518 26.6242C12.3264 26.8039 11.9608 26.8937 11.5553 26.8937ZM11.5553 26.3943C11.8541 26.3943 12.1209 26.3282 12.3557 26.196C12.5958 26.0587 12.7826 25.8658 12.916 25.6174C13.0493 25.3689 13.1161 25.0862 13.1161 24.769C13.1161 24.4519 13.0493 24.1692 12.916 23.9208C12.7826 23.6723 12.5958 23.4821 12.3557 23.3499C12.1209 23.2125 11.8541 23.1438 11.5553 23.1438C11.2565 23.1438 10.987 23.2125 10.7469 23.3499C10.5121 23.4821 10.3254 23.6723 10.1866 23.9208C10.0532 24.1692 9.98653 24.4519 9.98653 24.769C9.98653 25.0862 10.0532 25.3689 10.1866 25.6174C10.3254 25.8658 10.5121 26.0587 10.7469 26.196C10.987 26.3282 11.2565 26.3943 11.5553 26.3943ZM19.6132 22.684V26.8541H19.093V23.5561L17.3881 26.3467H17.132L15.4272 23.5481V26.8541H14.907V22.684H15.4832L17.2681 25.6887L19.085 22.684H19.6132ZM22.6791 22.6523C23.2287 22.6523 23.6502 22.7897 23.9437 23.0645C24.2372 23.3342 24.3839 23.7357 24.3839 24.2696V26.8541H23.8396V26.204C23.7116 26.4207 23.5221 26.5898 23.2714 26.7114C23.0259 26.8329 22.7324 26.8937 22.3909 26.8937C21.9214 26.8937 21.5478 26.7828 21.2704 26.5608C20.9929 26.3388 20.8542 26.0455 20.8542 25.6808C20.8542 25.3267 20.9823 25.0413 21.2383 24.8246C21.4998 24.6078 21.9134 24.4995 22.479 24.4995H23.8157V24.2458C23.8157 23.8864 23.7142 23.6142 23.5115 23.4292C23.3088 23.239 23.0126 23.1438 22.6231 23.1438C22.3563 23.1438 22.1001 23.1887 21.8547 23.2786C21.6092 23.3632 21.3985 23.4821 21.2223 23.6353L20.9662 23.2151C21.1797 23.0355 21.4358 22.8981 21.7346 22.8029C22.0334 22.7025 22.3483 22.6523 22.6791 22.6523ZM22.479 26.4498C22.7991 26.4498 23.074 26.3785 23.3034 26.2357C23.5328 26.0877 23.7036 25.8763 23.8157 25.6015V24.9197H22.495C21.7746 24.9197 21.4145 25.1681 21.4145 25.6649C21.4145 25.908 21.5078 26.101 21.6945 26.2437C21.8813 26.3811 22.1428 26.4498 22.479 26.4498ZM28.8582 23.1835H27.2654V26.8541H26.6971V23.1835H25.1043V22.684H28.8582V23.1835ZM31.2213 26.8937C30.8157 26.8937 30.4503 26.8039 30.1248 26.6242C29.7992 26.4393 29.5432 26.1855 29.3563 25.8631C29.1697 25.5407 29.0762 25.1761 29.0762 24.769C29.0762 24.3621 29.1697 23.9974 29.3563 23.6751C29.5432 23.3526 29.7992 23.1016 30.1248 22.9219C30.4503 22.7422 30.8157 22.6523 31.2213 22.6523C31.6269 22.6523 31.9923 22.7422 32.3178 22.9219C32.6433 23.1016 32.8968 23.3526 33.0782 23.6751C33.265 23.9974 33.3584 24.3621 33.3584 24.769C33.3584 25.1761 33.265 25.5407 33.0782 25.8631C32.8968 26.1855 32.6433 26.4393 32.3178 26.6242C31.9923 26.8039 31.6269 26.8937 31.2213 26.8937ZM31.2213 26.3943C31.5201 26.3943 31.787 26.3282 32.0218 26.196C32.2618 26.0587 32.4486 25.8658 32.5819 25.6174C32.7154 25.3689 32.7821 25.0862 32.7821 24.769C32.7821 24.4519 32.7154 24.1692 32.5819 23.9208C32.4486 23.6723 32.2618 23.4821 32.0218 23.3499C31.787 23.2125 31.5201 23.1438 31.2213 23.1438C30.9225 23.1438 30.6531 23.2125 30.4129 23.3499C30.1781 23.4821 29.9913 23.6723 29.8526 23.9208C29.7192 24.1692 29.6525 24.4519 29.6525 24.769C29.6525 25.0862 29.7192 25.3689 29.8526 25.6174C29.9913 25.8658 30.1781 26.0587 30.4129 26.196C30.6531 26.3282 30.9225 26.3943 31.2213 26.3943ZM37.9912 22.684V26.8541H37.4229V23.1835H35.4059L35.3499 24.2141C35.3071 25.0809 35.2058 25.7468 35.0457 26.2119C34.8857 26.677 34.6001 26.9096 34.1893 26.9096C34.0773 26.9096 33.9412 26.8885 33.7811 26.8462L33.8211 26.3626C33.9172 26.3837 33.9838 26.3943 34.0212 26.3943C34.24 26.3943 34.4054 26.2938 34.5174 26.093C34.6296 25.8922 34.7042 25.6438 34.7416 25.3478C34.7789 25.0518 34.811 24.6607 34.8376 24.1744L34.9096 22.684H37.9912ZM41.3435 26.8937C40.9379 26.8937 40.5725 26.8039 40.247 26.6242C39.9215 26.4393 39.6654 26.1855 39.4786 25.8631C39.2919 25.5407 39.1984 25.1761 39.1984 24.769C39.1984 24.3621 39.2919 23.9974 39.4786 23.6751C39.6654 23.3526 39.9215 23.1016 40.247 22.9219C40.5725 22.7422 40.9379 22.6523 41.3435 22.6523C41.7491 22.6523 42.1145 22.7422 42.44 22.9219C42.7655 23.1016 43.019 23.3526 43.2004 23.6751C43.3872 23.9974 43.4806 24.3621 43.4806 24.769C43.4806 25.1761 43.3872 25.5407 43.2004 25.8631C43.019 26.1855 42.7655 26.4393 42.44 26.6242C42.1145 26.8039 41.7491 26.8937 41.3435 26.8937ZM41.3435 26.3943C41.6423 26.3943 41.9092 26.3282 42.144 26.196C42.384 26.0587 42.5708 25.8658 42.7042 25.6174C42.8376 25.3689 42.9044 25.0862 42.9044 24.769C42.9044 24.4519 42.8376 24.1692 42.7042 23.9208C42.5708 23.6723 42.384 23.4821 42.144 23.3499C41.9092 23.2125 41.6423 23.1438 41.3435 23.1438C41.0447 23.1438 40.7753 23.2125 40.5351 23.3499C40.3003 23.4821 40.1135 23.6723 39.9748 23.9208C39.8414 24.1692 39.7747 24.4519 39.7747 24.769C39.7747 25.0862 39.8414 25.3689 39.9748 25.6174C40.1135 25.8658 40.3003 26.0587 40.5351 26.196C40.7753 26.3282 41.0447 26.3943 41.3435 26.3943ZM47.6726 23.1835H45.2634V26.8541H44.6951V22.684H47.6726V23.1835ZM48.4939 22.684H49.0621V25.9978L51.8716 22.684H52.3758V26.8541H51.8075V23.5402L49.0061 26.8541H48.4939V22.684ZM57.1821 22.684V26.8541H56.6138V25.1179C56.1281 25.3293 55.6507 25.435 55.1811 25.435C54.6741 25.435 54.2792 25.3214 53.9964 25.0941C53.7137 24.8616 53.5722 24.5153 53.5722 24.0555V22.684H54.1405V24.0238C54.1405 24.3356 54.2419 24.5735 54.4446 24.7374C54.6475 24.896 54.9276 24.9751 55.2851 24.9751C55.68 24.9751 56.1229 24.8721 56.6138 24.666V22.684H57.1821ZM62.4777 24.9435H58.956C58.988 25.3768 59.1561 25.7283 59.4603 25.9978C59.7643 26.2622 60.1486 26.3943 60.6128 26.3943C60.8743 26.3943 61.1143 26.3494 61.3331 26.2596C61.552 26.1644 61.7414 26.027 61.9014 25.8473L62.2217 26.2119C62.0349 26.4339 61.8001 26.6031 61.5173 26.7194C61.2398 26.8356 60.9329 26.8937 60.5968 26.8937C60.1645 26.8937 59.7804 26.8039 59.4442 26.6242C59.1133 26.4393 58.8546 26.1855 58.6678 25.8631C58.4811 25.5407 58.3877 25.1761 58.3877 24.769C58.3877 24.3621 58.4757 23.9974 58.6519 23.6751C58.8333 23.3526 59.0787 23.1016 59.3882 22.9219C59.7031 22.7422 60.0551 22.6523 60.4447 22.6523C60.8342 22.6523 61.1838 22.7422 61.4932 22.9219C61.8027 23.1016 62.0455 23.3526 62.2217 23.6751C62.3977 23.9921 62.4858 24.3567 62.4858 24.769L62.4777 24.9435ZM60.4447 23.1358C60.0392 23.1358 59.6977 23.2654 59.4202 23.5244C59.148 23.7781 58.9933 24.111 58.956 24.5233H61.9415C61.904 24.111 61.7467 23.7781 61.4692 23.5244C61.197 23.2654 60.8556 23.1358 60.4447 23.1358ZM65.5045 26.8937C65.0883 26.8937 64.7148 26.8039 64.384 26.6242C64.0585 26.4445 63.8023 26.1934 63.6156 25.871C63.4288 25.5434 63.3355 25.1761 63.3355 24.769C63.3355 24.3621 63.4288 23.9974 63.6156 23.6751C63.8023 23.3526 64.0585 23.1016 64.384 22.9219C64.7148 22.7422 65.0883 22.6523 65.5045 22.6523C65.8674 22.6523 66.1902 22.7236 66.473 22.8663C66.7612 23.0038 66.988 23.2072 67.1533 23.4768L66.7291 23.7622C66.5904 23.5561 66.4144 23.4028 66.2009 23.3024C65.9875 23.1967 65.7553 23.1438 65.5045 23.1438C65.2004 23.1438 64.9256 23.2125 64.6801 23.3499C64.44 23.4821 64.2506 23.6723 64.1118 23.9208C63.9785 24.1692 63.9117 24.4519 63.9117 24.769C63.9117 25.0914 63.9785 25.3768 64.1118 25.6253C64.2506 25.8684 64.44 26.0587 64.6801 26.196C64.9256 26.3282 65.2004 26.3943 65.5045 26.3943C65.7553 26.3943 65.9875 26.3441 66.2009 26.2437C66.4144 26.1433 66.5904 25.9899 66.7291 25.7839L67.1533 26.0692C66.988 26.3388 66.7612 26.5449 66.473 26.6876C66.1848 26.8251 65.8621 26.8937 65.5045 26.8937ZM69.7824 24.999H68.822V26.8541H68.2538V22.684H68.822V24.5153H69.7905L71.2713 22.684H71.8876L70.2307 24.7056L72.0076 26.8541H71.3353L69.7824 24.999ZM74.275 22.6523C74.8247 22.6523 75.2461 22.7897 75.5397 23.0645C75.8331 23.3342 75.9798 23.7357 75.9798 24.2696V26.8541H75.4356V26.204C75.3075 26.4207 75.1181 26.5898 74.8673 26.7114C74.6218 26.8329 74.3284 26.8937 73.9868 26.8937C73.5173 26.8937 73.1438 26.7828 72.8664 26.5608C72.5889 26.3388 72.4502 26.0455 72.4502 25.6808C72.4502 25.3267 72.5782 25.0413 72.8343 24.8246C73.0958 24.6078 73.5094 24.4995 74.0749 24.4995H75.4116V24.2458C75.4116 23.8864 75.3102 23.6142 75.1074 23.4292C74.9047 23.239 74.6085 23.1438 74.219 23.1438C73.9521 23.1438 73.696 23.1887 73.4506 23.2786C73.2052 23.3632 72.9944 23.4821 72.8183 23.6353L72.5622 23.2151C72.7757 23.0355 73.0318 22.8981 73.3306 22.8029C73.6294 22.7025 73.9442 22.6523 74.275 22.6523ZM74.0749 26.4498C74.3951 26.4498 74.6699 26.3785 74.8993 26.2357C75.1287 26.0877 75.2995 25.8763 75.4116 25.6015V24.9197H74.091C73.3705 24.9197 73.0103 25.1681 73.0103 25.6649C73.0103 25.908 73.1038 26.101 73.2905 26.2437C73.4773 26.3811 73.7388 26.4498 74.0749 26.4498ZM80.7263 22.684V26.8541H80.206V25.4746H78.8854H78.7253L77.7488 26.8541H77.1325L78.1811 25.3953C77.8555 25.3055 77.6047 25.1522 77.4287 24.9355C77.2525 24.7189 77.1646 24.444 77.1646 24.111C77.1646 23.6459 77.3246 23.2918 77.6448 23.0487C77.9649 22.8056 78.4024 22.684 78.9574 22.684H80.7263ZM77.7408 24.1269C77.7408 24.7453 78.1383 25.0544 78.9334 25.0544H80.206V23.1835H78.9734C78.1517 23.1835 77.7408 23.498 77.7408 24.1269ZM85.9702 24.999H85.0098V26.8541H84.4414V22.684H85.0098V24.5153H85.9782L87.4589 22.684H88.0752L86.4184 24.7056L88.1953 26.8541H87.523L85.9702 24.999ZM92.5339 22.684V26.8541H91.9656V23.1835H89.9487L89.8926 24.2141C89.8499 25.0809 89.7486 25.7468 89.5884 26.2119C89.4283 26.677 89.1429 26.9096 88.732 26.9096C88.62 26.9096 88.4839 26.8885 88.3238 26.8462L88.3639 26.3626C88.4598 26.3837 88.5266 26.3943 88.5639 26.3943C88.7827 26.3943 88.9481 26.2938 89.0602 26.093C89.1722 25.8922 89.2469 25.6438 89.2842 25.3478C89.3217 25.0518 89.3537 24.6607 89.3803 24.1744L89.4524 22.684H92.5339ZM94.1494 22.684H94.7177V25.9978L97.5271 22.684H98.0314V26.8541H97.4631V23.5402L94.6617 26.8541H94.1494V22.684ZM99.6599 22.684H100.228V24.5312H102.878V22.684H103.446V26.8541H102.878V25.0148H100.228V26.8541H99.6599V22.684ZM105.061 22.684H105.629V25.9978L108.439 22.684H108.943V26.8541H108.375V23.5402L105.573 26.8541H105.061V22.684ZM112.1 24.999H111.14V26.8541H110.572V22.684H111.14V24.5153H112.108L113.589 22.684H114.205L112.549 24.7056L114.325 26.8541H113.653L112.1 24.999ZM116.592 22.6523C117.142 22.6523 117.564 22.7897 117.858 23.0645C118.151 23.3342 118.298 23.7357 118.298 24.2696V26.8541H117.754V26.204C117.625 26.4207 117.437 26.5898 117.186 26.7114C116.939 26.8329 116.646 26.8937 116.305 26.8937C115.835 26.8937 115.462 26.7828 115.185 26.5608C114.906 26.3388 114.768 26.0455 114.768 25.6808C114.768 25.3267 114.896 25.0413 115.153 24.8246C115.414 24.6078 115.827 24.4995 116.393 24.4995H117.73V24.2458C117.73 23.8864 117.628 23.6142 117.425 23.4292C117.222 23.239 116.927 23.1438 116.537 23.1438C116.271 23.1438 116.014 23.1887 115.769 23.2786C115.523 23.3632 115.312 23.4821 115.137 23.6353L114.88 23.2151C115.093 23.0355 115.35 22.8981 115.649 22.8029C115.948 22.7025 116.263 22.6523 116.592 22.6523ZM116.393 26.4498C116.713 26.4498 116.988 26.3785 117.218 26.2357C117.447 26.0877 117.617 25.8763 117.73 25.6015V24.9197H116.409C115.689 24.9197 115.328 25.1681 115.328 25.6649C115.328 25.908 115.422 26.101 115.609 26.2437C115.795 26.3811 116.056 26.4498 116.393 26.4498Z" fill="#010101"/>
</g>
<defs>
<clipPath id="clip0_4158_3172">
<rect width="119" height="27" fill="white"/>
</clipPath>
</defs>
</svg>
