<svg width="184" height="209" viewBox="0 0 184 209" fill="none" xmlns="http://www.w3.org/2000/svg">
<path d="M80.5654 83.983L80.5627 83.9831L29.4719 85.4173C29.4702 85.4173 29.4684 85.4174 29.4666 85.4174M80.5654 83.983L8.00462 46.758C-0.49481 56.1165 -1.93111 69.743 4.43124 80.6679C9.65463 89.6371 19.3481 95.0325 29.7285 94.7471L29.4666 85.4174M80.5654 83.983C90.7556 83.6999 100.278 88.9997 105.407 97.8065C110.537 106.616 110.445 117.511 105.171 126.236L105.169 126.239L78.709 169.965C78.7087 169.966 78.7082 169.966 78.7079 169.967C75.1035 175.928 75.0413 183.368 78.5492 189.391C82.8628 196.798 91.33 200.488 99.6899 198.607L224.239 170.56C247.35 165.355 269.438 156.675 289.891 144.764C319.311 127.631 329.31 89.7456 312.185 60.3387C304.04 46.354 296.297 39.0357 288.615 32.1886C288.033 31.6696 287.446 31.1497 286.856 30.6267C279.495 24.103 271.581 17.0892 264.598 5.09825C257.612 -6.89634 255.417 -17.2434 253.376 -26.8666C253.212 -27.6364 253.05 -28.4015 252.886 -29.1625C250.722 -39.2225 248.18 -49.5649 240.04 -63.5415C222.909 -92.9586 185.023 -102.956 155.604 -85.8232C135.152 -73.912 116.703 -58.984 100.769 -41.4539C100.769 -41.4536 100.769 -41.4533 100.769 -41.453L14.9138 53.0329L80.5654 83.983ZM29.4666 85.4174C22.4992 85.6071 16.0003 81.9873 12.4966 75.9709C8.1835 68.5648 9.15113 59.3795 14.9123 53.0346L29.4666 85.4174Z" stroke="#B7FBBD" stroke-width="18.6667"/>
</svg>
