<svg viewBox="0 0 490 347" fill="none" xmlns="http://www.w3.org/2000/svg">
<g clip-path="url(#clip0_7050_79)">
<path d="M173.25 24.9182C173.772 24.9182 174.29 24.9142 174.803 24.9065C160.769 41.4659 152.285 62.8887 152.285 86.2708C152.285 117.048 156.988 147.553 166.261 176.923L192.612 260.375C187.19 256.089 180.4 253.647 173.25 253.647C161.82 253.647 151.318 259.883 145.841 269.915L145.839 269.919L116.142 324.375L116.141 324.377C111.639 332.626 103.006 337.75 93.6039 337.75C82.0774 337.75 72.0412 330.395 68.5699 319.407L68.5697 319.406L21.9134 171.654C13.1783 143.987 8.75 115.259 8.75 86.2708C8.75 43.5303 43.5282 8.75 86.2521 8.75C107.676 8.75 120.691 13.0212 133.548 17.2481L133.8 17.331L133.802 17.3315C145.135 21.0578 156.877 24.9182 173.25 24.9182Z" stroke="url(#paint0_linear_7050_79)" stroke-width="17.5"/>
<path d="M343.192 269.915L343.191 269.912C337.716 259.88 327.21 253.645 315.784 253.645C304.354 253.645 293.851 259.881 288.374 269.914L288.372 269.918L258.675 324.374C258.675 324.374 258.675 324.375 258.674 324.375C254.172 332.624 245.54 337.748 236.138 337.748C224.612 337.748 214.576 330.394 211.105 319.406C211.105 319.405 211.104 319.405 211.104 319.405L164.448 171.653C155.713 143.986 151.285 115.258 151.285 86.2702C151.285 43.5301 186.063 8.75 228.786 8.75C248.815 8.75 261.513 12.4899 273.503 16.4023C274.398 16.6944 275.294 16.9896 276.194 17.2857C287.536 21.021 299.369 24.9181 315.784 24.9181C332.203 24.9181 344.04 21.0198 355.383 17.2838C356.281 16.9883 357.175 16.6938 358.068 16.4023C370.057 12.4897 382.751 8.75 402.768 8.75C445.506 8.75 480.283 43.5309 480.283 86.2702C480.283 115.258 475.855 143.986 467.122 171.653L420.466 319.404C416.993 330.394 406.956 337.748 395.43 337.748C386.035 337.748 377.401 332.626 372.893 324.373L343.192 269.915Z" stroke="url(#paint1_linear_7050_79)" stroke-width="17.5011"/>
</g>
<defs>
<linearGradient id="paint0_linear_7050_79" x1="-3.67973" y1="291.076" x2="139.908" y2="243.275" gradientUnits="userSpaceOnUse">
<stop stop-color="#AE8EF8"/>
<stop offset="1" stop-color="#CBB3EF"/>
</linearGradient>
<linearGradient id="paint1_linear_7050_79" x1="136.839" y1="291.075" x2="331.906" y2="190.574" gradientUnits="userSpaceOnUse">
<stop stop-color="#AE8EF8"/>
<stop offset="1" stop-color="#CBB3EF"/>
</linearGradient>
<clipPath id="clip0_7050_79">
<rect width="490" height="347" fill="white"/>
</clipPath>
</defs>
</svg>
