<svg viewBox="0 0 286 286" fill="none" xmlns="http://www.w3.org/2000/svg">
<path d="M118.401 221.482L118.402 221.48C123.285 212.531 132.657 206.97 142.848 206.97C153.044 206.97 162.412 212.533 167.297 221.481L167.299 221.484L191.768 266.354C191.768 266.355 191.769 266.356 191.769 266.356C195.106 272.471 201.504 276.269 208.474 276.269C217.046 276.269 224.496 270.809 227.077 262.638C227.077 262.638 227.077 262.638 227.077 262.638L265.52 140.895C272.653 118.304 276.268 94.8493 276.268 71.1804C276.268 37.1359 248.562 9.42904 214.532 9.42904C198.349 9.42904 188.128 12.4374 178.345 15.6296C177.604 15.8716 176.859 16.1169 176.11 16.3637C166.768 19.4418 156.725 22.7511 142.848 22.7511C128.968 22.7511 118.922 19.4408 109.579 16.3621C108.832 16.1158 108.089 15.871 107.349 15.6295C97.5663 12.4371 87.3497 9.42904 71.1757 9.42904C37.1336 9.42904 9.4287 37.1369 9.4287 71.1804C9.4287 94.8493 13.0443 118.305 20.1746 140.896L58.6173 262.636C61.2002 270.809 68.6513 276.269 77.2225 276.269C84.1865 276.269 90.5866 272.472 93.9284 266.353L118.401 221.482Z" stroke="url(#paint0_linear_7096_3791)" stroke-width="18.6667"/>
<defs>
<linearGradient id="paint0_linear_7096_3791" x1="290.294" y1="239.934" x2="129.564" y2="157.124" gradientUnits="userSpaceOnUse">
<stop stop-color="#AE8EF8"/>
<stop offset="1" stop-color="#CBB3EF"/>
</linearGradient>
</defs>
</svg>
