<svg width="741" height="690" viewBox="0 0 741 690" fill="none" xmlns="http://www.w3.org/2000/svg">
<path d="M202.077 9.79923C177.494 6.31209 153.811 18.9867 143.077 41.3766C134.293 59.6974 136.211 81.3268 148.088 97.8285L215.805 191.795L215.807 191.797C226.656 206.861 228.408 226.623 220.385 243.357C212.36 260.096 195.857 271.099 177.314 272.076H177.31L61.6531 278.119H61.651C41.3556 279.185 23.2883 291.23 14.4984 309.564C3.76373 331.955 8.71357 358.357 26.8282 375.334L26.8287 375.335L237.928 573.15C278.024 610.718 323.46 641.804 372.966 665.538C448.702 701.849 539.862 669.777 576.161 594.066C592.822 559.314 596.913 534.021 600.052 510.318C600.28 508.593 600.503 506.872 600.727 505.152C603.601 483.022 606.456 461.049 619.164 434.543C631.875 408.029 647.224 392.04 662.68 375.94C663.879 374.691 665.077 373.442 666.276 372.187C682.791 354.899 699.944 335.878 716.596 301.145C752.905 225.411 720.824 134.253 645.089 97.9432C595.583 74.2088 542.895 58.25 488.498 50.5105L202.079 9.7995" stroke="#B7FBBD" stroke-width="17.5011"/>
</svg>
