<svg width="323" height="306" viewBox="0 0 323 306" fill="none" xmlns="http://www.w3.org/2000/svg">
<path d="M11.0919 153.233C5.33079 159.578 4.36315 168.763 8.67621 176.169C12.1808 182.187 18.6821 185.807 25.6515 185.615L76.7424 184.181H76.745C86.9352 183.898 96.457 189.198 101.586 198.005C106.716 206.815 106.624 217.709 101.35 226.434L101.348 226.437L74.8886 270.163L74.8875 270.165C71.2831 276.126 71.2209 283.566 74.7288 289.589C79.0424 296.996 87.5096 300.686 95.8695 298.805L220.419 270.758C243.529 265.553 265.618 256.873 286.071 244.962C315.49 227.829 325.49 189.944 308.364 160.537C300.22 146.552 292.476 139.234 284.795 132.387C284.212 131.868 283.626 131.348 283.036 130.825C275.674 124.301 267.76 117.287 260.777 105.296C253.792 93.302 251.597 82.9549 249.555 73.3317C249.392 72.5619 249.229 71.7968 249.066 71.0358C246.901 60.9759 244.359 50.6334 236.22 36.6568C219.088 7.23969 181.202 -2.75731 151.784 14.3751C131.331 26.2863 112.882 41.2143 96.949 58.7444L96.948 58.7453L11.0934 153.231" stroke="#B7FBBD" stroke-width="12"/>
</svg>
