<svg viewBox="0 0 331 313" fill="none" xmlns="http://www.w3.org/2000/svg">
<path d="M15.0919 157.233C9.33078 163.578 8.36314 172.763 12.6762 180.169C16.1808 186.187 22.6821 189.807 29.6515 189.615L80.7424 188.181H80.745C90.9352 187.898 100.457 193.198 105.586 202.005C110.716 210.815 110.624 221.709 105.35 230.434L105.348 230.437L78.8886 274.163L78.8875 274.165C75.2831 280.126 75.2209 287.566 78.7288 293.589C83.0424 300.996 91.5096 304.686 99.8695 302.805L224.419 274.758C247.529 269.553 269.618 260.873 290.071 248.962C319.49 231.829 329.49 193.944 312.364 164.537C304.22 150.552 296.476 143.234 288.795 136.387C288.212 135.868 287.626 135.348 287.036 134.825C279.674 128.301 271.76 121.287 264.777 109.296C257.792 97.302 255.597 86.9549 253.555 77.3317C253.392 76.5619 253.229 75.7968 253.066 75.0358C250.901 64.9759 248.359 54.6334 240.22 40.6568C223.088 11.2397 185.202 1.2427 155.784 18.3751C135.331 30.2863 116.882 45.2143 100.949 62.7444L100.948 62.7453L15.0934 157.231" stroke="#B7FBBD" stroke-width="18.6667"/>
</svg>
