<svg viewBox="0 0 472 472" fill="none" xmlns="http://www.w3.org/2000/svg">
<path d="M117.881 7.99609C57.3882 7.99609 8.17193 57.219 8.17193 117.713C8.17196 157.548 14.2572 197.026 26.2569 235.045L89.6495 435.797C94.9462 452.554 110.277 463.787 127.852 463.787C141.998 463.787 155.019 456.194 161.997 443.917L162.324 443.329L202.681 369.334L202.682 369.332L202.998 368.763C209.751 356.875 222.366 349.517 236.067 349.517C249.99 349.517 262.783 357.111 269.456 369.334L269.458 369.337L309.808 443.328C316.693 455.947 329.9 463.787 344.282 463.787C361.583 463.787 376.71 452.902 382.227 436.578L382.481 435.797L445.874 235.045C457.877 197.026 463.963 157.548 463.963 117.713C463.963 57.2183 414.745 7.99609 354.271 7.99609C326.397 7.99609 308.642 13.2295 292.152 18.6103C275.496 24.0458 259.329 29.9638 236.067 29.9639C212.802 29.9639 196.632 24.046 179.977 18.6103C163.488 13.2294 145.74 7.9961 117.881 7.99609Z" stroke="url(#paint0_linear_7221_47)" stroke-width="15"/>
<defs>
<linearGradient id="paint0_linear_7221_47" x1="479.2" y1="395.983" x2="214.162" y2="259.431" gradientUnits="userSpaceOnUse">
<stop stop-color="#AE8EF8"/>
<stop offset="1" stop-color="#CBB3EF"/>
</linearGradient>
</defs>
</svg>
