<?xml version="1.0" encoding="UTF-8"?>
<svg id="_Слой_1" data-name="Слой 1" xmlns="http://www.w3.org/2000/svg" viewBox="0 0 262.63 261.84">
  <defs>
    <style>
      .cls-1 {
        fill: #b7fbbd;
        stroke-width: 0px;
      }
    </style>
  </defs>
  <path class="cls-1" d="M0,101.28c0-1.92,0-3.84,0-5.76.08-.25.21-.49.25-.75,2.21-13.48,15.36-22.03,28.54-18.45,13.13,3.57,26.24,7.25,39.36,10.89,2.27.63,4.56.76,6.87.26,8.86-1.9,13.81-10.53,11.08-19.28-4.01-12.84-8.03-25.67-11.98-38.52-3.83-12.45,3.27-25.31,15.81-28.76,1.37-.37,2.77-.61,4.16-.91,1.28,0,2.56,0,3.84,0,.17.07.34.19.52.21,2.9.29,5.61,1.17,8.21,2.47,27.22,13.62,54.43,27.25,81.67,40.83,10.91,5.44,21.76,10.97,31.81,17.92,9.17,6.33,17.84,13.27,25.73,21.13,9.73,9.7,15.25,21.46,16.5,35.16,1.02,11.15-1.09,21.7-6.25,31.64-4.73,9.11-11.86,16.09-19.82,22.33-6.01,4.71-12.75,8.21-19.5,11.7-8,4.14-15.14,9.35-20.9,16.36-4.58,5.59-7.8,11.96-10.86,18.43-4.25,8.98-9.53,17.25-16.28,24.59-8.9,9.69-19.69,15.89-32.66,18.24-1.84.33-3.69.56-5.54.84h-8.88c-.26-.07-.52-.19-.78-.22-7.66-.69-14.86-2.89-21.65-6.48-6.48-3.43-11.82-8.25-16.88-13.48-11.99-12.4-22.22-26.1-30.45-41.25-15.93-29.33-31.74-58.72-47.61-88.09-1.48-2.74-3.04-5.44-3.72-8.53C.41,102.96.2,102.12,0,101.28ZM243.95,122.26c-.12-1.28-.19-3.16-.47-5.01-1.34-8.81-5.34-16.2-11.78-22.36-12.49-11.93-26.4-21.85-41.82-29.61-16.51-8.32-33.07-16.54-49.6-24.81-13.89-6.95-27.78-13.92-41.69-20.84-.89-.44-1.98-.82-2.94-.75-2.88.23-4.4,2.72-3.53,5.54,4.03,13,8.13,25.98,12.09,39,4.76,15.69-2.61,32.5-17.35,39.67-8.26,4.02-16.77,4.25-25.55,1.71-12.35-3.57-24.77-6.9-37.16-10.33-1.94-.54-3.49-.05-4.57,1.44-1.27,1.75-.95,3.47.03,5.27,15.56,28.77,31.17,57.51,46.61,86.34,8.92,16.66,19.84,31.78,33.47,44.89,15.62,15.02,39.92,14.15,54.77-1.76,6.42-6.88,11.06-14.82,15-23.27,4.36-9.38,9.86-17.99,17.24-25.33,6.68-6.64,14.41-11.76,22.77-15.97,8.54-4.31,16.57-9.28,23.29-16.23,7.3-7.56,11-16.51,11.21-27.58Z"/>
</svg>