<svg width="148" height="319" viewBox="0 0 148 319" fill="none" xmlns="http://www.w3.org/2000/svg">
<path d="M116.386 8.15701C107.176 4.68583 96.9326 7.54124 90.8466 15.2769C85.8787 21.5914 84.7558 30.1038 87.9193 37.4968L107.764 83.8007L107.765 83.8022C111.259 91.9625 110.019 101.37 104.532 108.344C99.0437 115.321 90.1938 118.738 81.4388 117.263L81.4361 117.262L31.7662 108.872H31.7648C23.8399 107.535 15.8305 110.628 10.8588 116.947C4.7724 124.684 4.40884 135.312 9.95159 143.444L80.8281 247.416C94.1645 266.978 110.354 284.313 128.945 298.939C156.705 320.779 197.063 315.963 218.895 288.214C229.055 275.299 233.092 265.193 236.634 255.527C236.896 254.811 237.157 254.094 237.418 253.376C240.731 244.259 244.131 234.901 252.261 224.568C260.392 214.231 268.69 208.723 276.772 203.356C277.407 202.935 278.041 202.514 278.674 202.091C287.235 196.375 296.104 190.075 306.259 177.167M234.119 52.571L175.253 30.3643L116.387 8.15754" stroke="url(#paint0_linear_7086_3413)" stroke-width="12"/>
<defs>
<linearGradient id="paint0_linear_7086_3413" x1="-8.34409" y1="204.447" x2="153.754" y2="130.409" gradientUnits="userSpaceOnUse">
<stop stop-color="#AE8EF8"/>
<stop offset="1" stop-color="#CBB3EF"/>
</linearGradient>
</defs>
</svg>
