<svg width="550" height="452" viewBox="0 0 550 452" fill="none" xmlns="http://www.w3.org/2000/svg">
<path d="M515.334 259.854L515.333 259.852C504.858 244.526 503.591 224.726 512.023 208.195C520.458 191.658 537.228 181.065 555.789 180.545L555.793 180.545L671.563 177.35C691.88 176.785 710.239 165.188 719.478 147.075C730.76 124.955 726.462 98.4398 708.771 81.0212C708.77 81.0211 708.77 81.0209 708.77 81.0207L502.603 -121.931C463.444 -160.475 418.788 -192.668 369.881 -217.614C295.062 -255.777 203.138 -225.959 164.988 -151.165C147.476 -116.833 142.763 -91.6489 139.043 -68.03C138.772 -66.3117 138.506 -64.5965 138.24 -62.8823C134.822 -40.8298 131.429 -18.9337 118.073 7.25124C104.712 33.4446 88.9744 49.0505 73.1265 64.7659C71.8975 65.9846 70.6678 67.204 69.4385 68.4291C52.5034 85.3056 34.8871 103.899 17.385 138.211C-20.7773 213.029 9.05162 304.949 83.8703 343.112C132.777 368.058 185.056 385.308 239.246 394.384L524.575 442.132C524.576 442.133 524.577 442.133 524.577 442.133C549.067 446.224 573.056 434.136 584.338 412.017C593.57 393.918 592.185 372.248 580.717 355.459L515.334 259.854Z" stroke="url(#paint0_linear_4432_3163)" stroke-width="17.5011"/>
<defs>
<linearGradient id="paint0_linear_4432_3163" x1="719.332" y1="-61.1284" x2="386.683" y2="178.054" gradientUnits="userSpaceOnUse">
<stop stop-color="#AE8EF8"/>
<stop offset="1" stop-color="#CBB3EF"/>
</linearGradient>
</defs>
</svg>
