<svg width="177" height="369" viewBox="0 0 177 369" fill="none" xmlns="http://www.w3.org/2000/svg">
<path d="M108.288 6.73451C95.7092 4.95036 83.5979 11.432 78.1051 22.8888C73.6157 32.253 74.5955 43.3078 80.6668 51.7428L116.887 102.003L116.888 102.005C122.973 110.454 123.956 121.539 119.456 130.925C114.955 140.314 105.697 146.485 95.2977 147.033H95.295L33.4326 150.265H33.4311C23.0577 150.81 13.8238 156.967 9.33102 166.338C3.83795 177.795 6.36939 191.297 15.6387 199.984L128.552 305.792V305.793C149.9 325.795 174.091 342.345 200.449 354.982C240.302 374.089 288.275 357.211 307.375 317.372C316.201 298.963 318.365 285.59 320.036 272.974C320.158 272.048 320.278 271.123 320.398 270.197C321.934 258.364 323.485 246.42 330.376 232.046C337.269 217.668 345.613 208.978 353.878 200.369C354.523 199.697 355.168 199.026 355.812 198.352C364.602 189.15 373.671 179.092 382.492 160.693C401.598 120.842 384.715 72.8713 344.862 53.7648C318.504 41.128 290.453 32.6312 261.49 28.5104L261.489 28.5103L108.289 6.73471" stroke="#F9FCF9" stroke-width="12"/>
</svg>
