<svg width="182" height="153" viewBox="0 0 182 153" fill="none" xmlns="http://www.w3.org/2000/svg">
<path d="M225.212 46.2741L225.214 46.2756L267.956 74.3025C267.957 74.3035 267.959 74.3045 267.96 74.3055M225.212 46.2741L263.472 118.294C275.796 115.474 284.763 105.114 285.787 92.513C286.628 82.1678 281.759 72.1998 273.078 66.5005L267.96 74.3055M225.212 46.2741C216.689 40.6817 211.905 30.8901 212.731 20.7323C213.557 10.5708 219.86 1.68392 229.174 -2.46003L229.178 -2.46172L275.883 -23.2154C275.884 -23.2157 275.884 -23.216 275.885 -23.2163C282.25 -26.0474 286.553 -32.1163 287.118 -39.0637C287.813 -47.607 282.974 -55.475 275.039 -58.7094L156.811 -106.889C134.873 -115.828 111.787 -121.332 88.1964 -123.25C54.2639 -126.008 24.4035 -100.638 21.6465 -66.7196C20.3354 -50.5895 22.5058 -40.1585 24.895 -30.1493C25.0761 -29.3906 25.2603 -28.6288 25.4456 -27.8623C27.7568 -18.3017 30.2415 -8.02281 29.1174 5.80777C27.9928 19.6425 23.8795 29.3873 20.054 38.4504C19.748 39.1753 19.4438 39.8959 19.1431 40.6139C15.1686 50.1055 11.3428 60.0448 10.0325 76.1657C7.27453 110.096 32.6468 139.954 66.5784 142.712C90.169 144.63 113.84 142.927 136.934 137.65C136.934 137.65 136.935 137.65 136.935 137.65L261.39 109.196L225.212 46.2741ZM267.96 74.3055C273.785 78.1325 277.049 84.8174 276.485 91.7568C275.79 100.299 269.746 107.283 261.392 109.196L267.96 74.3055Z" stroke="url(#paint0_linear_3900_2119)" stroke-width="18.6667"/>
<defs>
<linearGradient id="paint0_linear_3900_2119" x1="257.532" y1="-123.558" x2="161.972" y2="29.9343" gradientUnits="userSpaceOnUse">
<stop stop-color="#AE8EF8"/>
<stop offset="1" stop-color="#CBB3EF"/>
</linearGradient>
</defs>
</svg>
