<svg width="490" height="347" viewBox="0 0 490 347" fill="none" xmlns="http://www.w3.org/2000/svg">
<path d="M166.261 177.424L166.261 177.423C156.988 148.053 152.285 117.548 152.285 86.7708C152.285 63.3887 160.769 41.9659 174.803 25.4065C174.29 25.4142 173.772 25.4182 173.25 25.4182C156.876 25.4182 145.134 21.5574 133.8 17.831L133.548 17.7481C120.691 13.5212 107.676 9.25 86.2521 9.25C43.5282 9.25 8.75 44.0303 8.75 86.7708C8.75 115.759 13.1783 144.487 21.9134 172.154L166.261 177.424ZM166.261 177.424L192.612 260.875C187.19 256.589 180.4 254.147 173.25 254.147C161.82 254.147 151.318 260.383 145.841 270.415L145.839 270.419L116.142 324.875C116.141 324.875 116.141 324.876 116.141 324.877C111.639 333.126 103.006 338.25 93.6039 338.25C82.0774 338.25 72.0412 330.895 68.5699 319.907C68.5698 319.907 68.5698 319.906 68.5697 319.906L21.9135 172.155L166.261 177.424Z" stroke="url(#paint0_linear_3900_2131)" stroke-width="17.5"/>
<path d="M343.188 270.413L343.19 270.416L372.89 324.874C372.891 324.876 372.892 324.877 372.893 324.879M343.188 270.413L428.807 322.542C424.184 337.171 410.77 347 395.427 347C382.83 347 371.251 340.129 365.211 329.069L372.893 324.879M343.188 270.413C337.713 260.381 327.207 254.146 315.781 254.146C304.351 254.146 293.848 260.382 288.371 270.415L288.369 270.419L258.672 324.875C258.672 324.875 258.672 324.876 258.671 324.876C254.17 333.125 245.537 338.249 236.135 338.249C224.609 338.249 214.573 330.895 211.102 319.907C211.102 319.906 211.102 319.906 211.101 319.906L164.445 172.154L343.188 270.413ZM372.893 324.879C377.401 333.129 386.034 338.249 395.427 338.249C406.953 338.249 416.99 330.895 420.463 319.905M372.893 324.879L420.463 319.905M420.463 319.905L467.119 172.155C475.852 144.487 480.28 115.759 480.28 86.7708C480.28 44.0315 445.503 9.25057 402.765 9.25057C382.748 9.25057 370.054 12.9903 358.065 16.9029C357.172 17.1944 356.278 17.4889 355.38 17.7844C344.037 21.5204 332.2 25.4187 315.781 25.4187C299.366 25.4187 287.533 21.5216 276.191 17.7863C275.291 17.4902 274.395 17.195 273.5 16.9029C261.511 12.9905 248.812 9.25057 228.783 9.25057C186.06 9.25057 151.282 44.0307 151.282 86.7708C151.282 115.759 155.71 144.487 164.445 172.154L420.463 319.905Z" stroke="url(#paint1_linear_3900_2131)" stroke-width="17.5011"/>
<defs>
<linearGradient id="paint0_linear_3900_2131" x1="-3.67973" y1="291.576" x2="139.908" y2="243.775" gradientUnits="userSpaceOnUse">
<stop stop-color="#AE8EF8"/>
<stop offset="1" stop-color="#CBB3EF"/>
</linearGradient>
<linearGradient id="paint1_linear_3900_2131" x1="136.836" y1="291.576" x2="331.903" y2="191.075" gradientUnits="userSpaceOnUse">
<stop stop-color="#AE8EF8"/>
<stop offset="1" stop-color="#CBB3EF"/>
</linearGradient>
</defs>
</svg>
