<svg width="331" height="313" viewBox="0 0 331 313" fill="none" xmlns="http://www.w3.org/2000/svg">
<path d="M80.9456 187.645L80.9482 187.645C91.1384 187.362 100.661 192.662 105.789 201.469C110.92 210.279 110.828 221.173 105.554 229.898L105.551 229.901L79.0918 273.627C79.0915 273.628 79.0911 273.628 79.0907 273.629C75.4863 279.59 75.4241 287.03 78.932 293.053C83.2454 300.46 91.7123 304.15 100.072 302.269C100.072 302.269 100.072 302.269 100.073 302.269L224.622 274.222C247.733 269.017 269.821 260.337 290.274 248.426C319.693 231.293 329.693 193.408 312.567 164.001C304.423 150.016 296.68 142.698 288.998 135.851C288.416 135.332 287.829 134.812 287.239 134.289C279.878 127.765 271.964 120.751 264.98 108.76C257.995 96.7658 255.8 86.4187 253.759 76.7955C253.595 76.0257 253.433 75.2606 253.269 74.4996C251.105 64.4397 248.563 54.0972 240.423 40.1206C223.292 10.7035 185.406 0.706522 155.987 17.8389C135.534 29.7503 117.085 44.6786 101.151 62.2091L15.2966 156.695C9.53412 163.04 8.56593 172.226 12.8794 179.633C16.384 185.651 22.8853 189.271 29.8547 189.079L80.9456 187.645Z" stroke="#B7FBBD" stroke-width="18.6667"/>
</svg>
