<svg width="331" height="313" viewBox="0 0 331 313" fill="none" xmlns="http://www.w3.org/2000/svg">
<path d="M81.0391 190.978L81.0408 190.978C90.0119 190.729 98.3938 195.394 102.909 203.147C107.425 210.903 107.345 220.493 102.701 228.174L102.7 228.177L76.2396 271.903C76.2393 271.903 76.2391 271.904 76.2388 271.904C72.0028 278.909 71.9298 287.654 76.0515 294.732C81.0967 303.395 91.0256 307.723 100.804 305.522C100.804 305.522 100.805 305.522 100.805 305.522L225.355 277.475C248.797 272.195 271.204 263.39 291.952 251.307C322.961 233.248 333.5 193.323 315.448 162.324C307.051 147.906 299.017 140.316 291.216 133.363C290.639 132.849 290.06 132.336 289.48 131.822C282.116 125.292 274.567 118.599 267.861 107.084C261.153 95.5655 259.056 85.6936 257.011 76.0651C256.851 75.3086 256.69 74.5537 256.528 73.7995C254.33 63.5842 251.696 52.8548 243.304 38.4441C225.245 7.43594 185.319 -3.0993 154.31 14.9594C133.562 27.0423 114.847 42.186 98.6846 59.9681L12.829 154.455C12.8287 154.455 12.8284 154.456 12.828 154.456C6.08895 161.877 4.95394 172.649 9.99889 181.311C14.1174 188.383 21.7587 192.638 29.9464 192.412L81.0391 190.978Z" stroke="#B7FBBD" stroke-width="12"/>
</svg>
