<svg width="741" height="347" viewBox="0 0 741 347" fill="none" xmlns="http://www.w3.org/2000/svg">
<g clip-path="url(#clip0_7074_90)">
<path d="M216.29 192.046L216.29 192.048C227.139 207.112 228.892 226.873 220.87 243.607C212.844 260.346 196.34 271.35 177.798 272.327H177.795L62.1374 278.37C41.8412 279.435 23.773 291.481 14.9828 309.815C4.2481 332.206 9.19794 358.607 27.3125 375.585L27.313 375.586L238.413 573.401C278.509 610.97 323.944 642.055 373.45 665.789C449.186 702.1 540.348 670.028 576.646 594.317C593.307 559.565 597.398 534.272 600.536 510.569C600.764 508.844 600.988 507.122 601.211 505.402C604.085 483.272 606.939 461.3 619.647 434.794C632.359 408.28 647.707 392.29 663.164 376.19C664.362 374.941 665.562 373.692 666.76 372.438C683.275 355.149 700.428 336.129 717.081 301.396C753.39 225.662 721.309 134.504 645.573 98.1932C596.068 74.4586 543.38 58.4998 488.983 50.7605L202.564 10.0494L202.562 10.0492C177.979 6.56216 154.296 19.2367 143.561 41.6266C134.778 59.9474 136.695 81.5768 148.573 98.0784L216.29 192.046Z" stroke="url(#paint0_linear_7074_90)" stroke-width="17.5011"/>
</g>
<defs>
<linearGradient id="paint0_linear_7074_90" x1="20.2533" y1="517.951" x2="346.915" y2="270.654" gradientUnits="userSpaceOnUse">
<stop stop-color="#AE8EF8"/>
<stop offset="1" stop-color="#CBB3EF"/>
</linearGradient>
<clipPath id="clip0_7074_90">
<rect width="741" height="347" fill="white"/>
</clipPath>
</defs>
</svg>
