<svg width="511" height="305" viewBox="0 0 511 305" fill="none" xmlns="http://www.w3.org/2000/svg">
<path d="M-5.56644 193.348L-5.56524 193.351C3.28069 209.671 2.5074 229.496 -7.57733 245.074C-17.6655 260.657 -35.4348 269.472 -53.9511 268.084L-53.955 268.084L-169.441 259.375C-189.708 257.851 -209.161 267.502 -220.211 284.57C-233.705 305.415 -232.152 332.231 -216.343 351.374C-216.342 351.375 -216.342 351.375 -216.342 351.375L-32.103 574.422C2.89139 616.783 44.0066 653.392 90.0932 683.227C160.599 728.871 255.098 708.648 300.727 638.166C321.67 605.815 328.944 581.247 335.07 558.135C335.516 556.454 335.957 554.775 336.397 553.097C342.061 531.512 347.685 510.08 363.659 485.405C379.639 460.722 396.895 446.814 414.273 432.809C415.621 431.723 416.969 430.636 418.318 429.544C436.896 414.495 456.328 397.81 477.261 365.475C522.904 294.971 502.67 200.474 432.165 154.831C386.079 124.996 335.848 102.468 282.875 87.8763L3.95667 11.0841C3.95597 11.0839 3.95526 11.0837 3.95456 11.0835C-19.986 4.4996 -45.0887 14.0605 -58.5823 34.9041C-69.6237 51.9596 -70.4714 73.6573 -60.788 91.535L-5.56644 193.348Z" stroke="url(#paint0_linear_4432_3160)" stroke-width="17.5011"/>
<defs>
<linearGradient id="paint0_linear_4432_3160" x1="-241.443" y1="491.688" x2="114.006" y2="287.925" gradientUnits="userSpaceOnUse">
<stop stop-color="#AE8EF8"/>
<stop offset="1" stop-color="#CBB3EF"/>
</linearGradient>
</defs>
</svg>
