<svg width="741" height="347" viewBox="0 0 741 347" fill="none" xmlns="http://www.w3.org/2000/svg">
<path d="M216.289 192.047L216.29 192.049C227.139 207.112 228.892 226.875 220.87 243.608C212.844 260.348 196.34 271.35 177.797 272.327L177.794 272.327L62.1369 278.37C41.8407 279.435 23.7725 291.481 14.9823 309.816C4.24759 332.206 9.19743 358.608 27.312 375.586C27.3122 375.586 27.3124 375.586 27.3125 375.586L238.412 573.402C278.508 610.971 323.943 642.055 373.449 665.79C449.185 702.1 540.347 670.028 576.645 594.317C593.306 559.566 597.398 534.273 600.536 510.569C600.764 508.845 600.988 507.124 601.211 505.403C604.085 483.274 606.939 461.301 619.647 434.795C632.359 408.281 647.707 392.292 663.164 376.191C664.362 374.943 665.562 373.693 666.76 372.438C683.275 355.15 700.428 336.129 717.081 301.396C753.39 225.662 721.308 134.504 645.572 98.1942C596.067 74.4596 543.379 58.5009 488.982 50.7615L202.564 10.0505C202.563 10.0504 202.562 10.0502 202.561 10.0502C177.978 6.56316 154.295 19.2377 143.56 41.6276C134.777 59.9484 136.694 81.5778 148.572 98.0794L216.289 192.047Z" stroke="#f9fcf933" stroke-width="17.5011"/>
</svg>
