<svg width="202" height="182" viewBox="0 0 202 182" fill="none" xmlns="http://www.w3.org/2000/svg">
<path d="M93.2932 66.6429L93.2926 66.641L81.1586 27.6587C81.1582 27.6574 81.1578 27.6561 81.1574 27.6549M93.2932 66.6429L106.69 2.66705C97.6574 -1.84886 86.8676 -0.0113461 79.8395 7.24042C74.0695 13.194 72.0129 21.8138 74.4737 29.7353L81.1574 27.6549M93.2932 66.6429C95.6616 74.2595 93.683 82.5535 88.1335 88.2797C82.5819 94.0079 74.3551 96.2426 66.6673 94.1146L66.6643 94.1138L27.3238 83.2056C27.3233 83.2054 27.3227 83.2053 27.3222 83.2051C21.7989 81.6757 15.8918 83.281 11.9009 87.3988C6.99769 92.4581 5.95794 99.9826 9.30451 106.18L57.7655 195.911C57.7655 195.911 57.7656 195.911 57.7656 195.911C66.7807 212.601 78.253 227.751 91.8629 240.942C111.571 260.042 143.155 259.548 162.248 239.848C171.292 230.516 175.273 222.933 178.89 215.527C179.163 214.968 179.436 214.406 179.71 213.84C183.138 206.77 186.795 199.229 194.456 191.324C202.12 183.416 209.545 179.525 216.505 175.876C217.06 175.585 217.613 175.296 218.162 175.006C225.45 171.159 232.903 166.945 241.942 157.618C261.042 137.911 260.545 106.327 240.837 87.2272C227.228 74.0371 211.725 63.0447 194.762 54.5554C194.762 54.5552 194.762 54.5551 194.761 54.555L103.559 8.92811M93.2932 66.6429L103.559 8.92811M81.1574 27.6549C79.4577 22.1785 80.8797 16.2254 84.8661 12.1121C89.7692 7.05298 97.2579 5.77757 103.559 8.92811M81.1574 27.6549L103.559 8.92811" stroke="#B7FBBD" stroke-width="14"/>
</svg>
