<svg width="829" height="833" viewBox="0 0 829 833" fill="none" xmlns="http://www.w3.org/2000/svg">
<path d="M467.287 59.4867C467.287 59.4867 467.29 59.4887 467.29 59.4907L508.774 117.055L508.774 117.057C515.771 126.772 516.903 139.518 511.729 150.31C506.553 161.105 495.907 168.201 483.949 168.832H483.946L413.094 172.534H413.093C401.259 173.155 390.725 180.178 385.6 190.869C379.333 203.941 382.22 219.344 392.796 229.256L522.118 350.44C546.559 373.341 574.254 392.289 604.43 406.756C650.011 428.609 704.879 409.306 726.725 363.741C736.825 342.674 739.301 327.373 741.214 312.929C741.354 311.869 741.492 310.808 741.63 309.747C743.388 296.195 745.166 282.497 753.068 266.015C760.973 249.528 770.541 239.562 780.008 229.703C780.747 228.933 781.486 228.164 782.223 227.392C792.286 216.857 802.663 205.349 812.757 184.294C834.608 138.715 815.3 83.8486 769.72 61.9967C739.543 47.5287 707.427 37.8007 674.268 33.0837L498.805 8.14326C484.452 6.10686 470.635 13.5016 464.368 26.5735C459.247 37.2547 460.363 49.8647 467.287 59.4867ZM467.287 59.4867L461.609 63.5797" stroke="url(#paint0_linear_7072_87)" stroke-width="14"/>
<path d="M92.2878 469.486C92.2878 469.486 92.2898 469.488 92.2898 469.49L133.774 527.054L133.775 527.056C140.772 536.771 141.903 549.517 136.729 560.309C131.553 571.104 120.908 578.2 108.95 578.831H108.947L38.0946 582.533H38.093C26.2589 583.154 15.7249 590.177 10.5994 600.868C4.33226 613.94 7.22016 629.343 17.7955 639.255L147.118 760.439C171.559 783.34 199.255 802.288 229.431 816.755C275.012 838.608 329.879 819.305 351.725 773.74C361.825 752.673 364.301 737.372 366.214 722.928C366.354 721.868 366.492 720.807 366.63 719.746C368.388 706.194 370.166 692.496 378.068 676.014C385.973 659.527 395.541 649.561 405.008 639.702C405.747 638.932 406.486 638.163 407.223 637.391C417.286 626.856 427.663 615.348 437.757 594.293C459.609 548.714 440.3 493.848 394.72 471.996C364.543 457.528 332.428 447.8 299.269 443.083H299.268L123.806 418.143C109.453 416.106 95.6348 423.501 89.3678 436.573C84.2468 447.254 85.3638 459.864 92.2878 469.486ZM92.2878 469.486L86.6088 473.579" stroke="url(#paint1_linear_7072_87)" stroke-width="14"/>
<defs>
<linearGradient id="paint0_linear_7072_87" x1="387.35" y1="317.663" x2="587.467" y2="166.166" gradientUnits="userSpaceOnUse">
<stop stop-color="#AE8EF8"/>
<stop offset="1" stop-color="#CBB3EF"/>
</linearGradient>
<linearGradient id="paint1_linear_7072_87" x1="12.35" y1="727.667" x2="212.467" y2="576.17" gradientUnits="userSpaceOnUse">
<stop stop-color="#AE8EF8"/>
<stop offset="1" stop-color="#CBB3EF"/>
</linearGradient>
</defs>
</svg>
