<svg width="177" height="369" viewBox="0 0 177 369" fill="none" xmlns="http://www.w3.org/2000/svg">
<path d="M116.889 102.005L116.888 102.003L80.6674 51.7425C74.5961 43.3075 73.6163 32.2527 78.1057 22.8885C83.5985 11.4317 95.7098 4.95009 108.289 6.73424L116.889 102.005ZM116.889 102.005C122.974 110.454 123.957 121.539 119.457 130.925C114.956 140.314 105.698 146.485 95.2983 147.033L95.2956 147.033L33.4332 150.265C33.4327 150.265 33.4322 150.265 33.4317 150.265C23.0583 150.81 13.8244 156.967 9.3316 166.338C3.83853 177.795 6.36997 191.297 15.6393 199.984L128.553 305.792C128.553 305.792 128.553 305.792 128.553 305.793C149.901 325.795 174.092 342.345 200.45 354.982C240.303 374.089 288.276 357.211 307.376 317.372C316.202 298.963 318.366 285.59 320.037 272.974C320.159 272.048 320.279 271.123 320.399 270.197C321.935 258.364 323.486 246.42 330.377 232.046C337.27 217.668 345.614 208.978 353.879 200.369C354.524 199.697 355.169 199.026 355.813 198.352C364.603 189.15 373.672 179.092 382.493 160.693C401.599 120.842 384.716 72.871 344.863 53.7645C318.505 41.1277 290.454 32.6309 261.491 28.5101C261.491 28.5101 261.49 28.51 261.49 28.51L108.29 6.73444L116.889 102.005Z" stroke="#F9FCF9" stroke-width="12"/>
</svg>
